solid OpenSCAD_Model
  facet normal 0.0717336 0 0.997424
    outer loop
      vertex -0.155731 -10.401 20.7756
      vertex 0 -10.401 20.7644
      vertex -0.155731 -8.2 20.7756
    endloop
  endfacet
  facet normal 0.0717336 0 0.997424
    outer loop
      vertex -0.155731 -8.2 20.7756
      vertex 0 -10.401 20.7644
      vertex 0 -8.2 20.7644
    endloop
  endfacet
  facet normal 0 -1 0
    outer loop
      vertex -0.233627 -10.401 19.3999
      vertex 0 -10.401 19.3876
      vertex 0 -10.401 20.7644
    endloop
  endfacet
  facet normal 0 -1 0
    outer loop
      vertex -0.233627 -10.401 19.3999
      vertex 0 -10.401 20.7644
      vertex -0.155731 -10.401 20.7756
    endloop
  endfacet
  facet normal 0.0525752 0 0.998617
    outer loop
      vertex -0.233627 -11.3621 19.3999
      vertex 0 -10.401 19.3876
      vertex -0.233627 -10.401 19.3999
    endloop
  endfacet
  facet normal 0.0525752 0 0.998617
    outer loop
      vertex -0.233627 -11.3621 19.3999
      vertex 0 -11.3736 19.3876
      vertex 0 -10.401 19.3876
    endloop
  endfacet
  facet normal 0.212409 0 0.977181
    outer loop
      vertex -0.398636 -10.401 20.8284
      vertex -0.155731 -10.401 20.7756
      vertex -0.398636 -8.2 20.8284
    endloop
  endfacet
  facet normal 0.212409 0 0.977181
    outer loop
      vertex -0.398636 -8.2 20.8284
      vertex -0.155731 -10.401 20.7756
      vertex -0.155731 -8.2 20.7756
    endloop
  endfacet
  facet normal -0.0521267 -0.996448 -0.0661398
    outer loop
      vertex -0.441577 -11.7639 25.6172
      vertex 0 -11.787 25.6172
      vertex 0 -13 43.892
    endloop
  endfacet
  facet normal 0 -1 0
    outer loop
      vertex -0.555893 -10.401 19.4509
      vertex -0.155731 -10.401 20.7756
      vertex -0.398636 -10.401 20.8284
    endloop
  endfacet
  facet normal 0 -1 0
    outer loop
      vertex -0.555893 -10.401 19.4509
      vertex -0.233627 -10.401 19.3999
      vertex -0.155731 -10.401 20.7756
    endloop
  endfacet
  facet normal 0.156309 0 0.987708
    outer loop
      vertex -0.555893 -11.3486 19.4509
      vertex -0.233627 -10.401 19.3999
      vertex -0.555893 -10.401 19.4509
    endloop
  endfacet
  facet normal 0.156309 0 0.987708
    outer loop
      vertex -0.555893 -11.3486 19.4509
      vertex -0.233627 -11.3621 19.3999
      vertex -0.233627 -10.401 19.3999
    endloop
  endfacet
  facet normal 0.260577 0 0.965453
    outer loop
      vertex -0.59035 -11.3474 19.4602
      vertex -0.555893 -11.3486 19.4509
      vertex -0.555893 -10.401 19.4509
    endloop
  endfacet
  facet normal 0 0 -1
    outer loop
      vertex -0.62944 -10.401 24.2422
      vertex -0.62944 -8.2 24.2422
      vertex 0.62944 -8.2 24.2422
    endloop
  endfacet
  facet normal 0 -1 0
    outer loop
      vertex -0.62944 -10.401 24.2422
      vertex 0.62944 -10.401 24.2422
      vertex 1.19897 -10.401 25.6172
    endloop
  endfacet
  facet normal 0 0 -1
    outer loop
      vertex -0.62944 -10.401 24.2422
      vertex 0.62944 -8.2 24.2422
      vertex 0.62944 -10.401 24.2422
    endloop
  endfacet
  facet normal 0.349587 0 0.936904
    outer loop
      vertex -0.631531 -10.401 20.9153
      vertex -0.398636 -10.401 20.8284
      vertex -0.631531 -8.2 20.9153
    endloop
  endfacet
  facet normal 0.349587 0 0.936904
    outer loop
      vertex -0.631531 -8.2 20.9153
      vertex -0.398636 -10.401 20.8284
      vertex -0.398636 -8.2 20.8284
    endloop
  endfacet
  facet normal 0.479157 0 0.877729
    outer loop
      vertex -0.849701 -10.401 21.0344
      vertex -0.631531 -10.401 20.9153
      vertex -0.849701 -8.2 21.0344
    endloop
  endfacet
  facet normal 0.479157 0 0.877729
    outer loop
      vertex -0.849701 -8.2 21.0344
      vertex -0.631531 -10.401 20.9153
      vertex -0.631531 -8.2 20.9153
    endloop
  endfacet
  facet normal 0 -1 0
    outer loop
      vertex -0.871063 -10.401 19.5354
      vertex -0.398636 -10.401 20.8284
      vertex -0.631531 -10.401 20.9153
    endloop
  endfacet
  facet normal 0 -1 0
    outer loop
      vertex -0.871063 -10.401 19.5354
      vertex -0.555893 -10.401 19.4509
      vertex -0.398636 -10.401 20.8284
    endloop
  endfacet
  facet normal 0.258963 6.30304e-05 0.965887
    outer loop
      vertex -0.871063 -10.401 19.5354
      vertex -0.59035 -11.3474 19.4602
      vertex -0.555893 -10.401 19.4509
    endloop
  endfacet
  facet normal 0.258765 0 0.96594
    outer loop
      vertex -0.871063 -11.3377 19.5354
      vertex -0.59035 -11.3474 19.4602
      vertex -0.871063 -10.401 19.5354
    endloop
  endfacet
  facet normal 0.59912 0 0.80066
    outer loop
      vertex -1.04869 -10.401 21.1833
      vertex -0.849701 -10.401 21.0344
      vertex -1.04869 -8.2 21.1833
    endloop
  endfacet
  facet normal 0.59912 0 0.80066
    outer loop
      vertex -1.04869 -8.2 21.1833
      vertex -0.849701 -10.401 21.0344
      vertex -0.849701 -8.2 21.0344
    endloop
  endfacet
  facet normal -0.0522081 -0.996444 -0.0661355
    outer loop
      vertex -1.05574 -10.0447 0.2
      vertex -0.233627 -11.3621 19.3999
      vertex -0.555893 -11.3486 19.4509
    endloop
  endfacet
  facet normal -0.0525489 -0.996427 -0.0661254
    outer loop
      vertex -1.05574 -10.0447 0.2
      vertex -0.555893 -11.3486 19.4509
      vertex -0.59035 -11.3474 19.4602
    endloop
  endfacet
  facet normal -0.0521493 -0.996447 -0.0661365
    outer loop
      vertex -1.05574 -10.0447 0.2
      vertex -0.59035 -11.3474 19.4602
      vertex -0.871063 -11.3377 19.5354
    endloop
  endfacet
  facet normal -0.0521941 -0.996444 -0.0661402
    outer loop
      vertex -1.05574 -10.0447 0.2
      vertex 0 -10.1 0.2
      vertex 0 -11.3736 19.3876
    endloop
  endfacet
  facet normal -0.0525291 -0.996428 -0.0661206
    outer loop
      vertex -1.05574 -10.0447 0.2
      vertex 0 -11.3736 19.3876
      vertex -0.233627 -11.3621 19.3999
    endloop
  endfacet
  facet normal 0 0 -1
    outer loop
      vertex -1.05574 -10.0447 0.2
      vertex 10.1 0 0.2
      vertex 0 -10.1 0.2
    endloop
  endfacet
  facet normal 0 -1 0
    outer loop
      vertex -1.17567 -10.401 19.6523
      vertex -0.871063 -10.401 19.5354
      vertex -0.631531 -10.401 20.9153
    endloop
  endfacet
  facet normal 0.358294 0 0.933609
    outer loop
      vertex -1.17567 -11.3295 19.6523
      vertex -0.871063 -10.401 19.5354
      vertex -1.17567 -10.401 19.6523
    endloop
  endfacet
  facet normal 0.358294 0 0.933609
    outer loop
      vertex -1.17567 -11.3295 19.6523
      vertex -0.871063 -11.3377 19.5354
      vertex -0.871063 -10.401 19.5354
    endloop
  endfacet
  facet normal -0.0522053 -0.996444 -0.0661357
    outer loop
      vertex -1.17567 -11.3295 19.6523
      vertex -1.05574 -10.0447 0.2
      vertex -0.871063 -11.3377 19.5354
    endloop
  endfacet
  facet normal -0.0535931 -0.99637 -0.0661394
    outer loop
      vertex -1.19075 -11.3292 19.66
      vertex -1.05574 -10.0447 0.2
      vertex -1.17567 -11.3295 19.6523
    endloop
  endfacet
  facet normal 0.454757 0 0.890615
    outer loop
      vertex -1.19075 -11.3292 19.66
      vertex -1.17567 -11.3295 19.6523
      vertex -1.17567 -10.401 19.6523
    endloop
  endfacet
  facet normal 0 -1 0
    outer loop
      vertex -1.19897 -10.401 25.6172
      vertex -0.62944 -10.401 24.2422
      vertex 1.19897 -10.401 25.6172
    endloop
  endfacet
  facet normal 0 0 -1
    outer loop
      vertex -1.19897 -10.401 25.6172
      vertex 0 -11.787 25.6172
      vertex -0.441577 -11.7639 25.6172
    endloop
  endfacet
  facet normal 0 0 -1
    outer loop
      vertex -1.19897 -10.401 25.6172
      vertex 1.19897 -10.401 25.6172
      vertex 0 -11.787 25.6172
    endloop
  endfacet
  facet normal 0 0 -1
    outer loop
      vertex -1.19897 -11.7242 25.6172
      vertex -1.19897 -10.401 25.6172
      vertex -0.441577 -11.7639 25.6172
    endloop
  endfacet
  facet normal 0.707167 0 0.707046
    outer loop
      vertex -1.22446 -10.401 21.3591
      vertex -1.04869 -10.401 21.1833
      vertex -1.04869 -8.2 21.1833
    endloop
  endfacet
  facet normal 0.707167 0 0.707046
    outer loop
      vertex -1.22446 -10.401 21.3591
      vertex -1.04869 -8.2 21.1833
      vertex -1.22446 -8.2 21.3591
    endloop
  endfacet
  facet normal 0.710809 0 -0.703385
    outer loop
      vertex -1.22446 -10.401 23.6409
      vertex -1.22446 -8.2 23.6409
      vertex -0.62944 -10.401 24.2422
    endloop
  endfacet
  facet normal 0.710809 0 -0.703385
    outer loop
      vertex -1.22446 -8.2 23.6409
      vertex -0.62944 -8.2 24.2422
      vertex -0.62944 -10.401 24.2422
    endloop
  endfacet
  facet normal 0.709461 0 -0.704745
    outer loop
      vertex -1.23185 -11.7203 25.5841
      vertex -1.19897 -10.401 25.6172
      vertex -1.19897 -11.7242 25.6172
    endloop
  endfacet
  facet normal -0.0522101 -0.996444 -0.0661375
    outer loop
      vertex -1.35887 -12.9288 43.892
      vertex -0.441577 -11.7639 25.6172
      vertex 0 -13 43.892
    endloop
  endfacet
  facet normal -0.0522302 -0.996443 -0.0661384
    outer loop
      vertex -1.35887 -12.9288 43.892
      vertex -1.19897 -11.7242 25.6172
      vertex -0.441577 -11.7639 25.6172
    endloop
  endfacet
  facet normal -0.0516173 -0.996475 -0.0661352
    outer loop
      vertex -1.35887 -12.9288 43.892
      vertex -1.23185 -11.7203 25.5841
      vertex -1.19897 -11.7242 25.6172
    endloop
  endfacet
  facet normal 0.800579 0 0.599227
    outer loop
      vertex -1.37341 -10.401 21.5581
      vertex -1.22446 -10.401 21.3591
      vertex -1.22446 -8.2 21.3591
    endloop
  endfacet
  facet normal 0.800579 0 0.599227
    outer loop
      vertex -1.37341 -10.401 21.5581
      vertex -1.22446 -8.2 21.3591
      vertex -1.37341 -8.2 21.5581
    endloop
  endfacet
  facet normal 0.800579 0 -0.599227
    outer loop
      vertex -1.37341 -10.401 23.4419
      vertex -1.37341 -8.2 23.4419
      vertex -1.22446 -10.401 23.6409
    endloop
  endfacet
  facet normal 0.800579 0 -0.599227
    outer loop
      vertex -1.37341 -8.2 23.4419
      vertex -1.22446 -8.2 23.6409
      vertex -1.22446 -10.401 23.6409
    endloop
  endfacet
  facet normal 0 -1 0
    outer loop
      vertex -1.4664 -10.401 19.8004
      vertex -0.631531 -10.401 20.9153
      vertex -0.849701 -10.401 21.0344
    endloop
  endfacet
  facet normal 0 -1 0
    outer loop
      vertex -1.4664 -10.401 19.8004
      vertex -1.17567 -10.401 19.6523
      vertex -0.631531 -10.401 20.9153
    endloop
  endfacet
  facet normal 0.453907 0 0.891049
    outer loop
      vertex -1.4664 -11.295 19.8004
      vertex -1.17567 -10.401 19.6523
      vertex -1.4664 -10.401 19.8004
    endloop
  endfacet
  facet normal 0.453862 1.83272e-05 0.891072
    outer loop
      vertex -1.4664 -11.295 19.8004
      vertex -1.19075 -11.3292 19.66
      vertex -1.17567 -10.401 19.6523
    endloop
  endfacet
  facet normal 0.87769 0 0.47923
    outer loop
      vertex -1.49255 -10.401 21.7763
      vertex -1.37341 -10.401 21.5581
      vertex -1.37341 -8.2 21.5581
    endloop
  endfacet
  facet normal 0.87769 0 0.47923
    outer loop
      vertex -1.49255 -10.401 21.7763
      vertex -1.37341 -8.2 21.5581
      vertex -1.49255 -8.2 21.7763
    endloop
  endfacet
  facet normal 0.87769 0 -0.47923
    outer loop
      vertex -1.49255 -10.401 23.2237
      vertex -1.49255 -8.2 23.2237
      vertex -1.37341 -10.401 23.4419
    endloop
  endfacet
  facet normal 0.87769 0 -0.47923
    outer loop
      vertex -1.49255 -8.2 23.2237
      vertex -1.37341 -8.2 23.4419
      vertex -1.37341 -10.401 23.4419
    endloop
  endfacet
  facet normal 0.936946 0 0.349474
    outer loop
      vertex -1.57942 -10.401 22.0092
      vertex -1.49255 -10.401 21.7763
      vertex -1.49255 -8.2 21.7763
    endloop
  endfacet
  facet normal 0.936946 0 0.349474
    outer loop
      vertex -1.57942 -10.401 22.0092
      vertex -1.49255 -8.2 21.7763
      vertex -1.57942 -8.2 22.0092
    endloop
  endfacet
  facet normal 0.936946 0 -0.349474
    outer loop
      vertex -1.57942 -10.401 22.9908
      vertex -1.57942 -8.2 22.9908
      vertex -1.49255 -10.401 23.2237
    endloop
  endfacet
  facet normal 0.936946 0 -0.349474
    outer loop
      vertex -1.57942 -8.2 22.9908
      vertex -1.49255 -8.2 23.2237
      vertex -1.49255 -10.401 23.2237
    endloop
  endfacet
  facet normal 0.977155 0 0.212528
    outer loop
      vertex -1.63225 -10.401 22.2521
      vertex -1.57942 -10.401 22.0092
      vertex -1.57942 -8.2 22.0092
    endloop
  endfacet
  facet normal 0.977155 0 0.212528
    outer loop
      vertex -1.63225 -10.401 22.2521
      vertex -1.57942 -8.2 22.0092
      vertex -1.63225 -8.2 22.2521
    endloop
  endfacet
  facet normal 0.977155 0 -0.212528
    outer loop
      vertex -1.63225 -10.401 22.7479
      vertex -1.63225 -8.2 22.7479
      vertex -1.57942 -10.401 22.9908
    endloop
  endfacet
  facet normal 0.977155 0 -0.212528
    outer loop
      vertex -1.63225 -8.2 22.7479
      vertex -1.57942 -8.2 22.9908
      vertex -1.57942 -10.401 22.9908
    endloop
  endfacet
  facet normal 0.997449 0 0.0713786
    outer loop
      vertex -1.64999 -10.401 22.5
      vertex -1.63225 -10.401 22.2521
      vertex -1.63225 -8.2 22.2521
    endloop
  endfacet
  facet normal 0.997449 0 0.0713786
    outer loop
      vertex -1.64999 -10.401 22.5
      vertex -1.63225 -8.2 22.2521
      vertex -1.64999 -8.2 22.5
    endloop
  endfacet
  facet normal 0.997449 0 -0.0713786
    outer loop
      vertex -1.64999 -10.401 22.5
      vertex -1.64999 -8.2 22.5
      vertex -1.63225 -10.401 22.7479
    endloop
  endfacet
  facet normal 0.997449 0 -0.0713786
    outer loop
      vertex -1.64999 -8.2 22.5
      vertex -1.63225 -8.2 22.7479
      vertex -1.63225 -10.401 22.7479
    endloop
  endfacet
  facet normal 0.709149 1.56352e-05 -0.705059
    outer loop
      vertex -1.67697 -11.6197 25.1364
      vertex -1.19897 -10.401 25.6172
      vertex -1.23185 -11.7203 25.5841
    endloop
  endfacet
  facet normal -0.156211 -0.985507 -0.0661369
    outer loop
      vertex -1.67697 -11.6197 25.1364
      vertex -1.23185 -11.7203 25.5841
      vertex -1.35887 -12.9288 43.892
    endloop
  endfacet
  facet normal 0 -1 0
    outer loop
      vertex -1.74004 -10.401 19.9781
      vertex -0.849701 -10.401 21.0344
      vertex -1.04869 -10.401 21.1833
    endloop
  endfacet
  facet normal 0 -1 0
    outer loop
      vertex -1.74004 -10.401 19.9781
      vertex -1.4664 -10.401 19.8004
      vertex -0.849701 -10.401 21.0344
    endloop
  endfacet
  facet normal 0.544631 0 0.838676
    outer loop
      vertex -1.74004 -11.2636 19.9781
      vertex -1.4664 -10.401 19.8004
      vertex -1.74004 -10.401 19.9781
    endloop
  endfacet
  facet normal 0.544631 0 0.838676
    outer loop
      vertex -1.74004 -11.2636 19.9781
      vertex -1.4664 -11.295 19.8004
      vertex -1.4664 -10.401 19.8004
    endloop
  endfacet
  facet normal 0.631114 0 0.77569
    outer loop
      vertex -1.76413 -11.2611 19.9977
      vertex -1.74004 -11.2636 19.9781
      vertex -1.74004 -10.401 19.9781
    endloop
  endfacet
  facet normal 0 -1 0
    outer loop
      vertex -1.99361 -10.401 20.1835
      vertex -1.74004 -10.401 19.9781
      vertex -1.04869 -10.401 21.1833
    endloop
  endfacet
  facet normal 0.629437 0 0.777051
    outer loop
      vertex -1.99361 -11.2372 20.1835
      vertex -1.74004 -10.401 19.9781
      vertex -1.99361 -10.401 20.1835
    endloop
  endfacet
  facet normal 0.629266 8.5928e-05 0.77719
    outer loop
      vertex -1.99361 -11.2372 20.1835
      vertex -1.76413 -11.2611 19.9977
      vertex -1.74004 -10.401 19.9781
    endloop
  endfacet
  facet normal 0 0 -1
    outer loop
      vertex -10.0447 -1.05574 0.2
      vertex 10.1 0 0.2
      vertex -9.87929 -2.09991 0.2
    endloop
  endfacet
  facet normal 0 1 0
    outer loop
      vertex -10.1 0 0.2
      vertex -6.1 0 9
      vertex 10.1 0 0.2
    endloop
  endfacet
  facet normal 0 0 -1
    outer loop
      vertex -10.1 0 0.2
      vertex 10.1 0 0.2
      vertex -10.0447 -1.05574 0.2
    endloop
  endfacet
  facet normal -0.775451 -0.627934 -0.0661376
    outer loop
      vertex -10.5172 -7.64121 43.892
      vertex -7.50576 -6.75822 0.2
      vertex -9.66088 -8.6987 43.892
    endloop
  endfacet
  facet normal -0.775445 -0.627942 -0.0661373
    outer loop
      vertex -10.5172 -7.64121 43.892
      vertex -8.17107 -5.93663 0.2
      vertex -7.50576 -6.75822 0.2
    endloop
  endfacet
  facet normal 0 0 1
    outer loop
      vertex -10.5172 -7.64121 43.892
      vertex -9.66088 -8.6987 43.892
      vertex -6.1 -8.2 43.892
    endloop
  endfacet
  facet normal 0 0 1
    outer loop
      vertex -11.2583 -6.5 43.892
      vertex -10.5172 -7.64121 43.892
      vertex -6.1 -8.2 43.892
    endloop
  endfacet
  facet normal 0 0 1
    outer loop
      vertex -11.2583 -6.5 43.892
      vertex -6.1 -8.2 43.892
      vertex -6.1 0 43.892
    endloop
  endfacet
  facet normal -0.836838 -0.543441 -0.0661373
    outer loop
      vertex -11.2583 -6.5 43.892
      vertex -8.17107 -5.93663 0.2
      vertex -10.5172 -7.64121 43.892
    endloop
  endfacet
  facet normal -0.836832 -0.54345 -0.066137
    outer loop
      vertex -11.2583 -6.5 43.892
      vertex -8.74686 -5.05 0.2
      vertex -8.17107 -5.93663 0.2
    endloop
  endfacet
  facet normal -0.889057 -0.452995 -0.0661369
    outer loop
      vertex -11.2583 -6.5 43.892
      vertex -9.22681 -4.10804 0.2
      vertex -8.74686 -5.05 0.2
    endloop
  endfacet
  facet normal 0 0 1
    outer loop
      vertex -11.8761 -5.28758 43.892
      vertex -11.2583 -6.5 43.892
      vertex -6.1 0 43.892
    endloop
  endfacet
  facet normal -0.889043 -0.45302 -0.0661377
    outer loop
      vertex -11.8761 -5.28758 43.892
      vertex -9.22681 -4.10804 0.2
      vertex -11.2583 -6.5 43.892
    endloop
  endfacet
  facet normal 0 0 1
    outer loop
      vertex -12.3637 -4.01722 43.892
      vertex -11.8761 -5.28758 43.892
      vertex -6.1 0 43.892
    endloop
  endfacet
  facet normal -0.931548 -0.357554 -0.0661377
    outer loop
      vertex -12.3637 -4.01722 43.892
      vertex -9.22681 -4.10804 0.2
      vertex -11.8761 -5.28758 43.892
    endloop
  endfacet
  facet normal -0.931537 -0.357581 -0.0661369
    outer loop
      vertex -12.3637 -4.01722 43.892
      vertex -9.60567 -3.12107 0.2
      vertex -9.22681 -4.10804 0.2
    endloop
  endfacet
  facet normal -0.963811 -0.258253 -0.0661369
    outer loop
      vertex -12.3637 -4.01722 43.892
      vertex -9.87929 -2.09991 0.2
      vertex -9.60567 -3.12107 0.2
    endloop
  endfacet
  facet normal 0 0 1
    outer loop
      vertex -12.7159 -2.70285 43.892
      vertex -12.3637 -4.01722 43.892
      vertex -6.1 0 43.892
    endloop
  endfacet
  facet normal -0.963808 -0.258263 -0.0661372
    outer loop
      vertex -12.7159 -2.70285 43.892
      vertex -9.87929 -2.09991 0.2
      vertex -12.3637 -4.01722 43.892
    endloop
  endfacet
  facet normal -0.985522 -0.156119 -0.0661372
    outer loop
      vertex -12.9288 -1.35887 43.892
      vertex -10.0447 -1.05574 0.2
      vertex -9.87929 -2.09991 0.2
    endloop
  endfacet
  facet normal 0 0 1
    outer loop
      vertex -12.9288 -1.35887 43.892
      vertex -12.7159 -2.70285 43.892
      vertex -6.1 0 43.892
    endloop
  endfacet
  facet normal -0.985522 -0.156117 -0.0661373
    outer loop
      vertex -12.9288 -1.35887 43.892
      vertex -9.87929 -2.09991 0.2
      vertex -12.7159 -2.70285 43.892
    endloop
  endfacet
  facet normal -0.996444 -0.0522101 -0.0661373
    outer loop
      vertex -13 0 43.892
      vertex -10.0447 -1.05574 0.2
      vertex -12.9288 -1.35887 43.892
    endloop
  endfacet
  facet normal -0.996444 -0.0521941 -0.0661377
    outer loop
      vertex -13 0 43.892
      vertex -10.1 0 0.2
      vertex -10.0447 -1.05574 0.2
    endloop
  endfacet
  facet normal 0 0 1
    outer loop
      vertex -13 0 43.892
      vertex -12.9288 -1.35887 43.892
      vertex -6.1 0 43.892
    endloop
  endfacet
  facet normal 0 1 0
    outer loop
      vertex -13 0 43.892
      vertex -6.1 0 43.892
      vertex -6.1 0 9
    endloop
  endfacet
  facet normal 0 1 0
    outer loop
      vertex -13 0 43.892
      vertex -6.1 0 9
      vertex -10.1 0 0.2
    endloop
  endfacet
  facet normal -0.156119 -0.985522 -0.0661346
    outer loop
      vertex -2.09991 -9.87929 0.2
      vertex -1.05574 -10.0447 0.2
      vertex -1.19075 -11.3292 19.66
    endloop
  endfacet
  facet normal -0.155967 -0.985545 -0.0661435
    outer loop
      vertex -2.09991 -9.87929 0.2
      vertex -1.19075 -11.3292 19.66
      vertex -1.4664 -11.295 19.8004
    endloop
  endfacet
  facet normal -0.15604 -0.985534 -0.0661403
    outer loop
      vertex -2.09991 -9.87929 0.2
      vertex -1.4664 -11.295 19.8004
      vertex -1.74004 -11.2636 19.9781
    endloop
  endfacet
  facet normal -0.156087 -0.985526 -0.066139
    outer loop
      vertex -2.09991 -9.87929 0.2
      vertex -1.74004 -11.2636 19.9781
      vertex -1.76413 -11.2611 19.9977
    endloop
  endfacet
  facet normal -0.156187 -0.985511 -0.0661362
    outer loop
      vertex -2.09991 -9.87929 0.2
      vertex -1.76413 -11.2611 19.9977
      vertex -1.99361 -11.2372 20.1835
    endloop
  endfacet
  facet normal 0 0 -1
    outer loop
      vertex -2.09991 -9.87929 0.2
      vertex 10.1 0 0.2
      vertex -1.05574 -10.0447 0.2
    endloop
  endfacet
  facet normal 0 -1 0
    outer loop
      vertex -2.22432 -10.401 20.4142
      vertex -1.04869 -10.401 21.1833
      vertex -1.22446 -10.401 21.3591
    endloop
  endfacet
  facet normal 0 -1 0
    outer loop
      vertex -2.22432 -10.401 20.4142
      vertex -1.99361 -10.401 20.1835
      vertex -1.04869 -10.401 21.1833
    endloop
  endfacet
  facet normal 0 -1 0
    outer loop
      vertex -2.22432 -10.401 24.5858
      vertex -0.62944 -10.401 24.2422
      vertex -1.19897 -10.401 25.6172
    endloop
  endfacet
  facet normal 0.709184 -1.18031e-05 -0.705024
    outer loop
      vertex -2.22432 -10.401 24.5858
      vertex -1.19897 -10.401 25.6172
      vertex -1.67697 -11.6197 25.1364
    endloop
  endfacet
  facet normal 0 -1 0
    outer loop
      vertex -2.22432 -10.401 24.5858
      vertex -1.22446 -10.401 23.6409
      vertex -0.62944 -10.401 24.2422
    endloop
  endfacet
  facet normal 0.707091 0 0.707122
    outer loop
      vertex -2.22432 -11.2161 20.4142
      vertex -1.99361 -10.401 20.1835
      vertex -2.22432 -10.401 20.4142
    endloop
  endfacet
  facet normal 0.707091 0 0.707122
    outer loop
      vertex -2.22432 -11.2161 20.4142
      vertex -1.99361 -11.2372 20.1835
      vertex -1.99361 -10.401 20.1835
    endloop
  endfacet
  facet normal -0.156263 -0.985499 -0.066135
    outer loop
      vertex -2.22432 -11.2161 20.4142
      vertex -2.09991 -9.87929 0.2
      vertex -1.99361 -11.2372 20.1835
    endloop
  endfacet
  facet normal 0.709197 0 -0.705011
    outer loop
      vertex -2.22432 -11.4961 24.5858
      vertex -2.22432 -10.401 24.5858
      vertex -1.67697 -11.6197 25.1364
    endloop
  endfacet
  facet normal -0.155667 -0.985593 -0.0661375
    outer loop
      vertex -2.38154 -11.2043 20.6084
      vertex -2.09991 -9.87929 0.2
      vertex -2.22432 -11.2161 20.4142
    endloop
  endfacet
  facet normal 0.777224 0 0.629224
    outer loop
      vertex -2.38154 -11.2043 20.6084
      vertex -2.22432 -11.2161 20.4142
      vertex -2.22432 -10.401 20.4142
    endloop
  endfacet
  facet normal 0 -1 0
    outer loop
      vertex -2.42966 -10.401 20.6678
      vertex -1.22446 -10.401 21.3591
      vertex -1.37341 -10.401 21.5581
    endloop
  endfacet
  facet normal 0 -1 0
    outer loop
      vertex -2.42966 -10.401 20.6678
      vertex -2.22432 -10.401 20.4142
      vertex -1.22446 -10.401 21.3591
    endloop
  endfacet
  facet normal 0.777178 2.30273e-05 0.629281
    outer loop
      vertex -2.42966 -10.401 20.6678
      vertex -2.38154 -11.2043 20.6084
      vertex -2.22432 -10.401 20.4142
    endloop
  endfacet
  facet normal 0 -1 0
    outer loop
      vertex -2.42966 -10.401 24.3322
      vertex -1.22446 -10.401 23.6409
      vertex -2.22432 -10.401 24.5858
    endloop
  endfacet
  facet normal 0 -1 0
    outer loop
      vertex -2.42966 -10.401 24.3322
      vertex -1.37341 -10.401 23.4419
      vertex -1.22446 -10.401 23.6409
    endloop
  endfacet
  facet normal -0.257919 -0.9639 -0.0661402
    outer loop
      vertex -2.42966 -11.1955 20.6678
      vertex -2.09991 -9.87929 0.2
      vertex -2.38154 -11.2043 20.6084
    endloop
  endfacet
  facet normal 0.777025 0 0.629469
    outer loop
      vertex -2.42966 -11.1955 20.6678
      vertex -2.38154 -11.2043 20.6084
      vertex -2.42966 -10.401 20.6678
    endloop
  endfacet
  facet normal 0.777178 0 -0.629281
    outer loop
      vertex -2.42966 -11.4466 24.3322
      vertex -2.22432 -10.401 24.5858
      vertex -2.22432 -11.4961 24.5858
    endloop
  endfacet
  facet normal 0.777178 0 -0.629281
    outer loop
      vertex -2.42966 -11.4466 24.3322
      vertex -2.42966 -10.401 24.3322
      vertex -2.22432 -10.401 24.5858
    endloop
  endfacet
  facet normal 0.837271 0 -0.546789
    outer loop
      vertex -2.43286 -11.4457 24.3273
      vertex -2.42966 -10.401 24.3322
      vertex -2.42966 -11.4466 24.3322
    endloop
  endfacet
  facet normal 0 -1 0
    outer loop
      vertex -2.60736 -10.401 20.9414
      vertex -1.37341 -10.401 21.5581
      vertex -1.49255 -10.401 21.7763
    endloop
  endfacet
  facet normal 0 -1 0
    outer loop
      vertex -2.60736 -10.401 20.9414
      vertex -2.42966 -10.401 20.6678
      vertex -1.37341 -10.401 21.5581
    endloop
  endfacet
  facet normal 0 -1 0
    outer loop
      vertex -2.60736 -10.401 24.0586
      vertex -1.37341 -10.401 23.4419
      vertex -2.42966 -10.401 24.3322
    endloop
  endfacet
  facet normal 0 -1 0
    outer loop
      vertex -2.60736 -10.401 24.0586
      vertex -1.49255 -10.401 23.2237
      vertex -1.37341 -10.401 23.4419
    endloop
  endfacet
  facet normal -0.258567 -0.963726 -0.0661394
    outer loop
      vertex -2.60736 -11.1666 20.9414
      vertex -2.09991 -9.87929 0.2
      vertex -2.42966 -11.1955 20.6678
    endloop
  endfacet
  facet normal 0.83864 0 0.544687
    outer loop
      vertex -2.60736 -11.1666 20.9414
      vertex -2.42966 -10.401 20.6678
      vertex -2.60736 -10.401 20.9414
    endloop
  endfacet
  facet normal 0.83864 0 0.544687
    outer loop
      vertex -2.60736 -11.1666 20.9414
      vertex -2.42966 -11.1955 20.6678
      vertex -2.42966 -10.401 20.6678
    endloop
  endfacet
  facet normal 0.838663 -1.42945e-05 -0.544651
    outer loop
      vertex -2.60736 -11.3805 24.0586
      vertex -2.42966 -10.401 24.3322
      vertex -2.43286 -11.4457 24.3273
    endloop
  endfacet
  facet normal 0.83864 0 -0.544687
    outer loop
      vertex -2.60736 -11.3805 24.0586
      vertex -2.60736 -10.401 24.0586
      vertex -2.42966 -10.401 24.3322
    endloop
  endfacet
  facet normal -0.156117 -0.985522 -0.0661395
    outer loop
      vertex -2.70285 -12.7159 43.892
      vertex -1.67697 -11.6197 25.1364
      vertex -1.35887 -12.9288 43.892
    endloop
  endfacet
  facet normal -0.156021 -0.985537 -0.0661352
    outer loop
      vertex -2.70285 -12.7159 43.892
      vertex -2.22432 -11.4961 24.5858
      vertex -1.67697 -11.6197 25.1364
    endloop
  endfacet
  facet normal -0.155905 -0.985556 -0.0661335
    outer loop
      vertex -2.70285 -12.7159 43.892
      vertex -2.42966 -11.4466 24.3322
      vertex -2.22432 -11.4961 24.5858
    endloop
  endfacet
  facet normal -0.174931 -0.982353 -0.0661914
    outer loop
      vertex -2.70285 -12.7159 43.892
      vertex -2.43286 -11.4457 24.3273
      vertex -2.42966 -11.4466 24.3322
    endloop
  endfacet
  facet normal 0 -1 0
    outer loop
      vertex -2.75549 -10.401 21.2321
      vertex -2.60736 -10.401 20.9414
      vertex -1.49255 -10.401 21.7763
    endloop
  endfacet
  facet normal 0 -1 0
    outer loop
      vertex -2.75549 -10.401 23.7679
      vertex -1.49255 -10.401 23.2237
      vertex -2.60736 -10.401 24.0586
    endloop
  endfacet
  facet normal -0.257976 -0.963885 -0.0661348
    outer loop
      vertex -2.75549 -11.1469 21.2321
      vertex -2.09991 -9.87929 0.2
      vertex -2.60736 -11.1666 20.9414
    endloop
  endfacet
  facet normal 0.890993 0 0.454017
    outer loop
      vertex -2.75549 -11.1469 21.2321
      vertex -2.60736 -10.401 20.9414
      vertex -2.75549 -10.401 21.2321
    endloop
  endfacet
  facet normal 0.890993 0 0.454017
    outer loop
      vertex -2.75549 -11.1469 21.2321
      vertex -2.60736 -11.1666 20.9414
      vertex -2.60736 -10.401 20.9414
    endloop
  endfacet
  facet normal 0.890993 0 -0.454017
    outer loop
      vertex -2.75549 -11.3209 23.7679
      vertex -2.60736 -10.401 24.0586
      vertex -2.60736 -11.3805 24.0586
    endloop
  endfacet
  facet normal 0.890993 0 -0.454017
    outer loop
      vertex -2.75549 -11.3209 23.7679
      vertex -2.75549 -10.401 23.7679
      vertex -2.60736 -10.401 24.0586
    endloop
  endfacet
  facet normal 0 -1 0
    outer loop
      vertex -2.87242 -10.401 21.5367
      vertex -1.49255 -10.401 21.7763
      vertex -1.57942 -10.401 22.0092
    endloop
  endfacet
  facet normal 0 -1 0
    outer loop
      vertex -2.87242 -10.401 21.5367
      vertex -2.75549 -10.401 21.2321
      vertex -1.49255 -10.401 21.7763
    endloop
  endfacet
  facet normal 0 -1 0
    outer loop
      vertex -2.87242 -10.401 23.4633
      vertex -1.49255 -10.401 23.2237
      vertex -2.75549 -10.401 23.7679
    endloop
  endfacet
  facet normal 0 -1 0
    outer loop
      vertex -2.87242 -10.401 23.4633
      vertex -1.57942 -10.401 22.9908
      vertex -1.49255 -10.401 23.2237
    endloop
  endfacet
  facet normal -0.258847 -0.963651 -0.0661478
    outer loop
      vertex -2.87242 -11.1364 21.5367
      vertex -2.09991 -9.87929 0.2
      vertex -2.75549 -11.1469 21.2321
    endloop
  endfacet
  facet normal 0.933575 0 0.358381
    outer loop
      vertex -2.87242 -11.1364 21.5367
      vertex -2.75549 -10.401 21.2321
      vertex -2.87242 -10.401 21.5367
    endloop
  endfacet
  facet normal 0.933575 0 0.358381
    outer loop
      vertex -2.87242 -11.1364 21.5367
      vertex -2.75549 -11.1469 21.2321
      vertex -2.75549 -10.401 21.2321
    endloop
  endfacet
  facet normal 0.933575 0 -0.358381
    outer loop
      vertex -2.87242 -11.2686 23.4633
      vertex -2.75549 -10.401 23.7679
      vertex -2.75549 -11.3209 23.7679
    endloop
  endfacet
  facet normal 0.933575 0 -0.358381
    outer loop
      vertex -2.87242 -11.2686 23.4633
      vertex -2.87242 -10.401 23.4633
      vertex -2.75549 -10.401 23.7679
    endloop
  endfacet
  facet normal 0 -1 0
    outer loop
      vertex -2.95686 -10.401 21.8519
      vertex -1.57942 -10.401 22.0092
      vertex -1.63225 -10.401 22.2521
    endloop
  endfacet
  facet normal 0 -1 0
    outer loop
      vertex -2.95686 -10.401 21.8519
      vertex -2.87242 -10.401 21.5367
      vertex -1.57942 -10.401 22.0092
    endloop
  endfacet
  facet normal 0 -1 0
    outer loop
      vertex -2.95686 -10.401 23.1481
      vertex -1.57942 -10.401 22.9908
      vertex -2.87242 -10.401 23.4633
    endloop
  endfacet
  facet normal 0 -1 0
    outer loop
      vertex -2.95686 -10.401 23.1481
      vertex -1.63225 -10.401 22.7479
      vertex -1.57942 -10.401 22.9908
    endloop
  endfacet
  facet normal -0.25829 -0.963801 -0.0661365
    outer loop
      vertex -2.95686 -11.1354 21.8519
      vertex -2.09991 -9.87929 0.2
      vertex -2.87242 -11.1364 21.5367
    endloop
  endfacet
  facet normal 0.965939 0 0.258769
    outer loop
      vertex -2.95686 -11.1354 21.8519
      vertex -2.87242 -10.401 21.5367
      vertex -2.95686 -10.401 21.8519
    endloop
  endfacet
  facet normal 0.965939 0 0.258769
    outer loop
      vertex -2.95686 -11.1354 21.8519
      vertex -2.87242 -11.1364 21.5367
      vertex -2.87242 -10.401 21.5367
    endloop
  endfacet
  facet normal 0.965939 0 -0.258769
    outer loop
      vertex -2.95686 -11.2244 23.1481
      vertex -2.87242 -10.401 23.4633
      vertex -2.87242 -11.2686 23.4633
    endloop
  endfacet
  facet normal 0.965939 0 -0.258769
    outer loop
      vertex -2.95686 -11.2244 23.1481
      vertex -2.95686 -10.401 23.1481
      vertex -2.87242 -10.401 23.4633
    endloop
  endfacet
  facet normal 0 -1 0
    outer loop
      vertex -3.0079 -10.401 22.1742
      vertex -1.63225 -10.401 22.2521
      vertex -1.64999 -10.401 22.5
    endloop
  endfacet
  facet normal 0 -1 0
    outer loop
      vertex -3.0079 -10.401 22.1742
      vertex -2.95686 -10.401 21.8519
      vertex -1.63225 -10.401 22.2521
    endloop
  endfacet
  facet normal 0.987692 0 0.156413
    outer loop
      vertex -3.0079 -10.401 22.1742
      vertex -2.95686 -11.1354 21.8519
      vertex -2.95686 -10.401 21.8519
    endloop
  endfacet
  facet normal 0 -1 0
    outer loop
      vertex -3.0079 -10.401 22.8258
      vertex -1.63225 -10.401 22.7479
      vertex -2.95686 -10.401 23.1481
    endloop
  endfacet
  facet normal 0 -1 0
    outer loop
      vertex -3.0079 -10.401 22.8258
      vertex -1.64999 -10.401 22.5
      vertex -1.63225 -10.401 22.7479
    endloop
  endfacet
  facet normal -0.256837 -0.964192 -0.0661017
    outer loop
      vertex -3.0079 -11.1439 22.1742
      vertex -2.09991 -9.87929 0.2
      vertex -2.95686 -11.1354 21.8519
    endloop
  endfacet
  facet normal 0.987692 0 0.156413
    outer loop
      vertex -3.0079 -11.1439 22.1742
      vertex -2.95686 -11.1354 21.8519
      vertex -3.0079 -10.401 22.1742
    endloop
  endfacet
  facet normal 0.987692 0 -0.156413
    outer loop
      vertex -3.0079 -11.1886 22.8258
      vertex -2.95686 -10.401 23.1481
      vertex -2.95686 -11.2244 23.1481
    endloop
  endfacet
  facet normal 0.987692 0 -0.156413
    outer loop
      vertex -3.0079 -11.1886 22.8258
      vertex -3.0079 -10.401 22.8258
      vertex -2.95686 -10.401 23.1481
    endloop
  endfacet
  facet normal 0 -1 0
    outer loop
      vertex -3.02499 -10.401 22.5
      vertex -1.64999 -10.401 22.5
      vertex -3.0079 -10.401 22.8258
    endloop
  endfacet
  facet normal 0 -1 0
    outer loop
      vertex -3.02499 -10.401 22.5
      vertex -3.0079 -10.401 22.1742
      vertex -1.64999 -10.401 22.5
    endloop
  endfacet
  facet normal 0.998627 0 0.0523835
    outer loop
      vertex -3.02499 -10.401 22.5
      vertex -3.0079 -11.1439 22.1742
      vertex -3.0079 -10.401 22.1742
    endloop
  endfacet
  facet normal -0.252707 -0.965289 -0.0659942
    outer loop
      vertex -3.02499 -11.1617 22.5
      vertex -2.09991 -9.87929 0.2
      vertex -3.0079 -11.1439 22.1742
    endloop
  endfacet
  facet normal 0.998627 0 -0.0523835
    outer loop
      vertex -3.02499 -11.1617 22.5
      vertex -3.0079 -10.401 22.8258
      vertex -3.0079 -11.1886 22.8258
    endloop
  endfacet
  facet normal 0.998627 0 0.0523835
    outer loop
      vertex -3.02499 -11.1617 22.5
      vertex -3.0079 -11.1439 22.1742
      vertex -3.02499 -10.401 22.5
    endloop
  endfacet
  facet normal 0.998627 0 -0.0523835
    outer loop
      vertex -3.02499 -11.1617 22.5
      vertex -3.02499 -10.401 22.5
      vertex -3.0079 -10.401 22.8258
    endloop
  endfacet
  facet normal 0 0 -1
    outer loop
      vertex -3.12107 -9.60567 0.2
      vertex 10.1 0 0.2
      vertex -2.09991 -9.87929 0.2
    endloop
  endfacet
  facet normal -0.259177 -0.963561 -0.0661632
    outer loop
      vertex -4.01722 -12.3637 43.892
      vertex -2.09991 -9.87929 0.2
      vertex -3.02499 -11.1617 22.5
    endloop
  endfacet
  facet normal -0.258263 -0.963808 -0.0661374
    outer loop
      vertex -4.01722 -12.3637 43.892
      vertex -2.43286 -11.4457 24.3273
      vertex -2.70285 -12.7159 43.892
    endloop
  endfacet
  facet normal -0.258274 -0.963805 -0.0661381
    outer loop
      vertex -4.01722 -12.3637 43.892
      vertex -2.60736 -11.3805 24.0586
      vertex -2.43286 -11.4457 24.3273
    endloop
  endfacet
  facet normal -0.258044 -0.963868 -0.0661248
    outer loop
      vertex -4.01722 -12.3637 43.892
      vertex -2.75549 -11.3209 23.7679
      vertex -2.60736 -11.3805 24.0586
    endloop
  endfacet
  facet normal -0.258699 -0.96369 -0.0661567
    outer loop
      vertex -4.01722 -12.3637 43.892
      vertex -2.87242 -11.2686 23.4633
      vertex -2.75549 -11.3209 23.7679
    endloop
  endfacet
  facet normal -0.257767 -0.963942 -0.066118
    outer loop
      vertex -4.01722 -12.3637 43.892
      vertex -2.95686 -11.2244 23.1481
      vertex -2.87242 -11.2686 23.4633
    endloop
  endfacet
  facet normal -0.258359 -0.963782 -0.0661395
    outer loop
      vertex -4.01722 -12.3637 43.892
      vertex -3.0079 -11.1886 22.8258
      vertex -2.95686 -11.2244 23.1481
    endloop
  endfacet
  facet normal -0.257279 -0.964074 -0.066104
    outer loop
      vertex -4.01722 -12.3637 43.892
      vertex -3.02499 -11.1617 22.5
      vertex -3.0079 -11.1886 22.8258
    endloop
  endfacet
  facet normal -0.258253 -0.963811 -0.0661369
    outer loop
      vertex -4.01722 -12.3637 43.892
      vertex -3.12107 -9.60567 0.2
      vertex -2.09991 -9.87929 0.2
    endloop
  endfacet
  facet normal -0.357581 -0.931537 -0.0661369
    outer loop
      vertex -4.10804 -9.22681 0.2
      vertex -3.12107 -9.60567 0.2
      vertex -4.01722 -12.3637 43.892
    endloop
  endfacet
  facet normal 0 0 -1
    outer loop
      vertex -4.10804 -9.22681 0.2
      vertex 10.1 0 0.2
      vertex -3.12107 -9.60567 0.2
    endloop
  endfacet
  facet normal 0 0 -1
    outer loop
      vertex -5.05 -8.74686 0.2
      vertex 10.1 0 0.2
      vertex -4.10804 -9.22681 0.2
    endloop
  endfacet
  facet normal -0.357554 -0.931548 -0.0661377
    outer loop
      vertex -5.28758 -11.8761 43.892
      vertex -4.10804 -9.22681 0.2
      vertex -4.01722 -12.3637 43.892
    endloop
  endfacet
  facet normal 0 0 -1
    outer loop
      vertex -5.93663 -8.17107 0.2
      vertex 10.1 0 0.2
      vertex -5.05 -8.74686 0.2
    endloop
  endfacet
  facet normal 0 1 0
    outer loop
      vertex -6.1 -8.2 43.892
      vertex -0.62944 -8.2 24.2422
      vertex -1.22446 -8.2 23.6409
    endloop
  endfacet
  facet normal 0 1 0
    outer loop
      vertex -6.1 -8.2 43.892
      vertex -1.22446 -8.2 23.6409
      vertex -1.37341 -8.2 23.4419
    endloop
  endfacet
  facet normal 0 0 1
    outer loop
      vertex -6.1 -8.2 43.892
      vertex -1.35887 -12.9288 43.892
      vertex 0 -13 43.892
    endloop
  endfacet
  facet normal 0 1 0
    outer loop
      vertex -6.1 -8.2 43.892
      vertex -1.37341 -8.2 23.4419
      vertex -1.49255 -8.2 23.2237
    endloop
  endfacet
  facet normal 0 1 0
    outer loop
      vertex -6.1 -8.2 43.892
      vertex -1.49255 -8.2 23.2237
      vertex -1.57942 -8.2 22.9908
    endloop
  endfacet
  facet normal 0 1 0
    outer loop
      vertex -6.1 -8.2 43.892
      vertex -1.57942 -8.2 22.9908
      vertex -1.63225 -8.2 22.7479
    endloop
  endfacet
  facet normal 0 0 1
    outer loop
      vertex -6.1 -8.2 43.892
      vertex -2.70285 -12.7159 43.892
      vertex -1.35887 -12.9288 43.892
    endloop
  endfacet
  facet normal 0 0 1
    outer loop
      vertex -6.1 -8.2 43.892
      vertex -4.01722 -12.3637 43.892
      vertex -2.70285 -12.7159 43.892
    endloop
  endfacet
  facet normal 0 0 1
    outer loop
      vertex -6.1 -8.2 43.892
      vertex -5.28758 -11.8761 43.892
      vertex -4.01722 -12.3637 43.892
    endloop
  endfacet
  facet normal 1 0 0
    outer loop
      vertex -6.1 -8.2 43.892
      vertex -6.1 0 9
      vertex -6.1 0 43.892
    endloop
  endfacet
  facet normal 0 0 1
    outer loop
      vertex -6.1 -8.2 43.892
      vertex 0 -13 43.892
      vertex 6.1 -8.2 43.892
    endloop
  endfacet
  facet normal 0 1 0
    outer loop
      vertex -6.1 -8.2 43.892
      vertex 0.62944 -8.2 24.2422
      vertex -0.62944 -8.2 24.2422
    endloop
  endfacet
  facet normal 0 1 0
    outer loop
      vertex -6.1 -8.2 43.892
      vertex 6.1 -8.2 43.892
      vertex 0.62944 -8.2 24.2422
    endloop
  endfacet
  facet normal 0 1 0
    outer loop
      vertex -6.1 -8.2 9
      vertex -0.155731 -8.2 20.7756
      vertex 0 -8.2 20.7644
    endloop
  endfacet
  facet normal 0 1 0
    outer loop
      vertex -6.1 -8.2 9
      vertex -0.398636 -8.2 20.8284
      vertex -0.155731 -8.2 20.7756
    endloop
  endfacet
  facet normal 0 1 0
    outer loop
      vertex -6.1 -8.2 9
      vertex -0.631531 -8.2 20.9153
      vertex -0.398636 -8.2 20.8284
    endloop
  endfacet
  facet normal 0 1 0
    outer loop
      vertex -6.1 -8.2 9
      vertex -0.849701 -8.2 21.0344
      vertex -0.631531 -8.2 20.9153
    endloop
  endfacet
  facet normal 0 1 0
    outer loop
      vertex -6.1 -8.2 9
      vertex -1.04869 -8.2 21.1833
      vertex -0.849701 -8.2 21.0344
    endloop
  endfacet
  facet normal 0 1 0
    outer loop
      vertex -6.1 -8.2 9
      vertex -1.22446 -8.2 21.3591
      vertex -1.04869 -8.2 21.1833
    endloop
  endfacet
  facet normal 0 1 0
    outer loop
      vertex -6.1 -8.2 9
      vertex -1.37341 -8.2 21.5581
      vertex -1.22446 -8.2 21.3591
    endloop
  endfacet
  facet normal 0 1 0
    outer loop
      vertex -6.1 -8.2 9
      vertex -1.49255 -8.2 21.7763
      vertex -1.37341 -8.2 21.5581
    endloop
  endfacet
  facet normal 0 1 0
    outer loop
      vertex -6.1 -8.2 9
      vertex -1.57942 -8.2 22.0092
      vertex -1.49255 -8.2 21.7763
    endloop
  endfacet
  facet normal 0 1 0
    outer loop
      vertex -6.1 -8.2 9
      vertex -1.63225 -8.2 22.2521
      vertex -1.57942 -8.2 22.0092
    endloop
  endfacet
  facet normal 0 1 0
    outer loop
      vertex -6.1 -8.2 9
      vertex -1.63225 -8.2 22.7479
      vertex -1.64999 -8.2 22.5
    endloop
  endfacet
  facet normal 0 1 0
    outer loop
      vertex -6.1 -8.2 9
      vertex -1.64999 -8.2 22.5
      vertex -1.63225 -8.2 22.2521
    endloop
  endfacet
  facet normal 0 1 0
    outer loop
      vertex -6.1 -8.2 9
      vertex -6.1 -8.2 43.892
      vertex -1.63225 -8.2 22.7479
    endloop
  endfacet
  facet normal 1 0 0
    outer loop
      vertex -6.1 -8.2 9
      vertex -6.1 0 9
      vertex -6.1 -8.2 43.892
    endloop
  endfacet
  facet normal 0 1 0
    outer loop
      vertex -6.1 -8.2 9
      vertex 0 -8.2 20.7644
      vertex 6.1 -8.2 9
    endloop
  endfacet
  facet normal 0 0 1
    outer loop
      vertex -6.1 -8.2 9
      vertex 6.1 -8.2 9
      vertex -6.1 0 9
    endloop
  endfacet
  facet normal 0 0 1
    outer loop
      vertex -6.1 0 9
      vertex 6.1 -8.2 9
      vertex 6.1 0 9
    endloop
  endfacet
  facet normal 0 1 0
    outer loop
      vertex -6.1 0 9
      vertex 6.1 0 9
      vertex 10.1 0 0.2
    endloop
  endfacet
  facet normal -0.45302 -0.889043 -0.0661377
    outer loop
      vertex -6.5 -11.2583 43.892
      vertex -4.10804 -9.22681 0.2
      vertex -5.28758 -11.8761 43.892
    endloop
  endfacet
  facet normal -0.452995 -0.889057 -0.0661369
    outer loop
      vertex -6.5 -11.2583 43.892
      vertex -5.05 -8.74686 0.2
      vertex -4.10804 -9.22681 0.2
    endloop
  endfacet
  facet normal 0 0 1
    outer loop
      vertex -6.5 -11.2583 43.892
      vertex -5.28758 -11.8761 43.892
      vertex -6.1 -8.2 43.892
    endloop
  endfacet
  facet normal -0.54345 -0.836832 -0.066137
    outer loop
      vertex -6.5 -11.2583 43.892
      vertex -5.93663 -8.17107 0.2
      vertex -5.05 -8.74686 0.2
    endloop
  endfacet
  facet normal 0 0 -1
    outer loop
      vertex -6.75822 -7.50576 0.2
      vertex 10.1 0 0.2
      vertex -5.93663 -8.17107 0.2
    endloop
  endfacet
  facet normal 0 0 -1
    outer loop
      vertex -7.50576 -6.75822 0.2
      vertex 10.1 0 0.2
      vertex -6.75822 -7.50576 0.2
    endloop
  endfacet
  facet normal -0.543441 -0.836838 -0.0661373
    outer loop
      vertex -7.64121 -10.5172 43.892
      vertex -5.93663 -8.17107 0.2
      vertex -6.5 -11.2583 43.892
    endloop
  endfacet
  facet normal 0 0 1
    outer loop
      vertex -7.64121 -10.5172 43.892
      vertex -6.5 -11.2583 43.892
      vertex -6.1 -8.2 43.892
    endloop
  endfacet
  facet normal -0.627942 -0.775445 -0.0661373
    outer loop
      vertex -7.64121 -10.5172 43.892
      vertex -6.75822 -7.50576 0.2
      vertex -5.93663 -8.17107 0.2
    endloop
  endfacet
  facet normal 0 0 -1
    outer loop
      vertex -8.17107 -5.93663 0.2
      vertex 10.1 0 0.2
      vertex -7.50576 -6.75822 0.2
    endloop
  endfacet
  facet normal -0.627934 -0.775451 -0.0661376
    outer loop
      vertex -8.6987 -9.66088 43.892
      vertex -6.75822 -7.50576 0.2
      vertex -7.64121 -10.5172 43.892
    endloop
  endfacet
  facet normal 0 0 1
    outer loop
      vertex -8.6987 -9.66088 43.892
      vertex -7.64121 -10.5172 43.892
      vertex -6.1 -8.2 43.892
    endloop
  endfacet
  facet normal 0 0 -1
    outer loop
      vertex -8.74686 -5.05 0.2
      vertex 10.1 0 0.2
      vertex -8.17107 -5.93663 0.2
    endloop
  endfacet
  facet normal 0 0 -1
    outer loop
      vertex -9.22681 -4.10804 0.2
      vertex 10.1 0 0.2
      vertex -8.74686 -5.05 0.2
    endloop
  endfacet
  facet normal 0 0 -1
    outer loop
      vertex -9.60567 -3.12107 0.2
      vertex 10.1 0 0.2
      vertex -9.22681 -4.10804 0.2
    endloop
  endfacet
  facet normal -0.705559 -0.705559 -0.0661376
    outer loop
      vertex -9.66088 -8.6987 43.892
      vertex -6.75822 -7.50576 0.2
      vertex -8.6987 -9.66088 43.892
    endloop
  endfacet
  facet normal -0.705559 -0.705559 -0.0661376
    outer loop
      vertex -9.66088 -8.6987 43.892
      vertex -7.50576 -6.75822 0.2
      vertex -6.75822 -7.50576 0.2
    endloop
  endfacet
  facet normal 0 0 1
    outer loop
      vertex -9.66088 -8.6987 43.892
      vertex -8.6987 -9.66088 43.892
      vertex -6.1 -8.2 43.892
    endloop
  endfacet
  facet normal 0 0 -1
    outer loop
      vertex -9.87929 -2.09991 0.2
      vertex 10.1 0 0.2
      vertex -9.60567 -3.12107 0.2
    endloop
  endfacet
  facet normal 0.0521941 -0.996445 -0.0661361
    outer loop
      vertex 0 -10.1 0.2
      vertex 1.05574 -10.0447 0.2
      vertex 0.233627 -11.3621 19.3999
    endloop
  endfacet
  facet normal 0 0 -1
    outer loop
      vertex 0 -10.1 0.2
      vertex 10.1 0 0.2
      vertex 1.05574 -10.0447 0.2
    endloop
  endfacet
  facet normal 0 -1 0
    outer loop
      vertex 0 -10.401 19.3876
      vertex 0.233627 -10.401 19.3999
      vertex 0 -10.401 20.7644
    endloop
  endfacet
  facet normal -0.0525752 0 0.998617
    outer loop
      vertex 0 -10.401 19.3876
      vertex 0.233627 -11.3621 19.3999
      vertex 0.233627 -10.401 19.3999
    endloop
  endfacet
  facet normal -0.0717336 0 0.997424
    outer loop
      vertex 0 -10.401 20.7644
      vertex 0.155731 -10.401 20.7756
      vertex 0 -8.2 20.7644
    endloop
  endfacet
  facet normal 0 -1 0
    outer loop
      vertex 0 -10.401 20.7644
      vertex 0.233627 -10.401 19.3999
      vertex 0.155731 -10.401 20.7756
    endloop
  endfacet
  facet normal 0.05253 -0.996427 -0.066139
    outer loop
      vertex 0 -11.3736 19.3876
      vertex 0 -10.1 0.2
      vertex 0.233627 -11.3621 19.3999
    endloop
  endfacet
  facet normal -0.0525752 0 0.998617
    outer loop
      vertex 0 -11.3736 19.3876
      vertex 0.233627 -11.3621 19.3999
      vertex 0 -10.401 19.3876
    endloop
  endfacet
  facet normal 0 0 -1
    outer loop
      vertex 0 -11.787 25.6172
      vertex 1.19897 -10.401 25.6172
      vertex 0.441577 -11.7639 25.6172
    endloop
  endfacet
  facet normal 0.0521267 -0.996448 -0.0661398
    outer loop
      vertex 0 -13 43.892
      vertex 0 -11.787 25.6172
      vertex 0.441577 -11.7639 25.6172
    endloop
  endfacet
  facet normal 0.0522101 -0.996444 -0.0661375
    outer loop
      vertex 0 -13 43.892
      vertex 0.441577 -11.7639 25.6172
      vertex 1.35887 -12.9288 43.892
    endloop
  endfacet
  facet normal 0 0 1
    outer loop
      vertex 0 -13 43.892
      vertex 1.35887 -12.9288 43.892
      vertex 6.1 -8.2 43.892
    endloop
  endfacet
  facet normal -0.0717336 0 0.997424
    outer loop
      vertex 0 -8.2 20.7644
      vertex 0.155731 -10.401 20.7756
      vertex 0.155731 -8.2 20.7756
    endloop
  endfacet
  facet normal 0 1 0
    outer loop
      vertex 0 -8.2 20.7644
      vertex 0.155731 -8.2 20.7756
      vertex 6.1 -8.2 9
    endloop
  endfacet
  facet normal 0 -1 0
    outer loop
      vertex 0.155731 -10.401 20.7756
      vertex 0.233627 -10.401 19.3999
      vertex 0.555893 -10.401 19.4509
    endloop
  endfacet
  facet normal -0.212409 0 0.977181
    outer loop
      vertex 0.155731 -10.401 20.7756
      vertex 0.398636 -10.401 20.8284
      vertex 0.155731 -8.2 20.7756
    endloop
  endfacet
  facet normal 0 -1 0
    outer loop
      vertex 0.155731 -10.401 20.7756
      vertex 0.555893 -10.401 19.4509
      vertex 0.398636 -10.401 20.8284
    endloop
  endfacet
  facet normal -0.212409 0 0.977181
    outer loop
      vertex 0.155731 -8.2 20.7756
      vertex 0.398636 -10.401 20.8284
      vertex 0.398636 -8.2 20.8284
    endloop
  endfacet
  facet normal 0 1 0
    outer loop
      vertex 0.155731 -8.2 20.7756
      vertex 0.398636 -8.2 20.8284
      vertex 6.1 -8.2 9
    endloop
  endfacet
  facet normal -0.156309 0 0.987708
    outer loop
      vertex 0.233627 -10.401 19.3999
      vertex 0.555893 -11.3486 19.4509
      vertex 0.555893 -10.401 19.4509
    endloop
  endfacet
  facet normal -0.156309 0 0.987708
    outer loop
      vertex 0.233627 -11.3621 19.3999
      vertex 0.555893 -11.3486 19.4509
      vertex 0.233627 -10.401 19.3999
    endloop
  endfacet
  facet normal 0.0522081 -0.996444 -0.0661355
    outer loop
      vertex 0.233627 -11.3621 19.3999
      vertex 1.05574 -10.0447 0.2
      vertex 0.555893 -11.3486 19.4509
    endloop
  endfacet
  facet normal 0 -1 0
    outer loop
      vertex 0.398636 -10.401 20.8284
      vertex 0.555893 -10.401 19.4509
      vertex 0.871063 -10.401 19.5354
    endloop
  endfacet
  facet normal -0.349587 0 0.936904
    outer loop
      vertex 0.398636 -10.401 20.8284
      vertex 0.631531 -10.401 20.9153
      vertex 0.398636 -8.2 20.8284
    endloop
  endfacet
  facet normal 0 -1 0
    outer loop
      vertex 0.398636 -10.401 20.8284
      vertex 0.871063 -10.401 19.5354
      vertex 0.631531 -10.401 20.9153
    endloop
  endfacet
  facet normal -0.349587 0 0.936904
    outer loop
      vertex 0.398636 -8.2 20.8284
      vertex 0.631531 -10.401 20.9153
      vertex 0.631531 -8.2 20.9153
    endloop
  endfacet
  facet normal 0 1 0
    outer loop
      vertex 0.398636 -8.2 20.8284
      vertex 0.631531 -8.2 20.9153
      vertex 6.1 -8.2 9
    endloop
  endfacet
  facet normal 0 0 -1
    outer loop
      vertex 0.441577 -11.7639 25.6172
      vertex 1.19897 -10.401 25.6172
      vertex 1.19897 -11.7242 25.6172
    endloop
  endfacet
  facet normal 0.0522302 -0.996443 -0.0661384
    outer loop
      vertex 0.441577 -11.7639 25.6172
      vertex 1.19897 -11.7242 25.6172
      vertex 1.35887 -12.9288 43.892
    endloop
  endfacet
  facet normal -0.258963 6.30304e-05 0.965887
    outer loop
      vertex 0.555893 -10.401 19.4509
      vertex 0.59035 -11.3474 19.4602
      vertex 0.871063 -10.401 19.5354
    endloop
  endfacet
  facet normal -0.260577 0 0.965453
    outer loop
      vertex 0.555893 -11.3486 19.4509
      vertex 0.59035 -11.3474 19.4602
      vertex 0.555893 -10.401 19.4509
    endloop
  endfacet
  facet normal 0.0525489 -0.996427 -0.0661254
    outer loop
      vertex 0.555893 -11.3486 19.4509
      vertex 1.05574 -10.0447 0.2
      vertex 0.59035 -11.3474 19.4602
    endloop
  endfacet
  facet normal -0.258765 0 0.96594
    outer loop
      vertex 0.59035 -11.3474 19.4602
      vertex 0.871063 -11.3377 19.5354
      vertex 0.871063 -10.401 19.5354
    endloop
  endfacet
  facet normal 0.0521493 -0.996447 -0.0661365
    outer loop
      vertex 0.59035 -11.3474 19.4602
      vertex 1.05574 -10.0447 0.2
      vertex 0.871063 -11.3377 19.5354
    endloop
  endfacet
  facet normal -0.710809 0 -0.703385
    outer loop
      vertex 0.62944 -10.401 24.2422
      vertex 0.62944 -8.2 24.2422
      vertex 1.22446 -10.401 23.6409
    endloop
  endfacet
  facet normal 0 -1 0
    outer loop
      vertex 0.62944 -10.401 24.2422
      vertex 1.22446 -10.401 23.6409
      vertex 2.22432 -10.401 24.5858
    endloop
  endfacet
  facet normal 0 -1 0
    outer loop
      vertex 0.62944 -10.401 24.2422
      vertex 2.22432 -10.401 24.5858
      vertex 1.19897 -10.401 25.6172
    endloop
  endfacet
  facet normal -0.710809 0 -0.703385
    outer loop
      vertex 0.62944 -8.2 24.2422
      vertex 1.22446 -8.2 23.6409
      vertex 1.22446 -10.401 23.6409
    endloop
  endfacet
  facet normal 0 1 0
    outer loop
      vertex 0.62944 -8.2 24.2422
      vertex 6.1 -8.2 43.892
      vertex 1.22446 -8.2 23.6409
    endloop
  endfacet
  facet normal -0.479157 0 0.877729
    outer loop
      vertex 0.631531 -10.401 20.9153
      vertex 0.849701 -10.401 21.0344
      vertex 0.631531 -8.2 20.9153
    endloop
  endfacet
  facet normal 0 -1 0
    outer loop
      vertex 0.631531 -10.401 20.9153
      vertex 0.871063 -10.401 19.5354
      vertex 1.17567 -10.401 19.6523
    endloop
  endfacet
  facet normal 0 -1 0
    outer loop
      vertex 0.631531 -10.401 20.9153
      vertex 1.17567 -10.401 19.6523
      vertex 1.4664 -10.401 19.8004
    endloop
  endfacet
  facet normal 0 -1 0
    outer loop
      vertex 0.631531 -10.401 20.9153
      vertex 1.4664 -10.401 19.8004
      vertex 0.849701 -10.401 21.0344
    endloop
  endfacet
  facet normal -0.479157 0 0.877729
    outer loop
      vertex 0.631531 -8.2 20.9153
      vertex 0.849701 -10.401 21.0344
      vertex 0.849701 -8.2 21.0344
    endloop
  endfacet
  facet normal 0 1 0
    outer loop
      vertex 0.631531 -8.2 20.9153
      vertex 0.849701 -8.2 21.0344
      vertex 6.1 -8.2 9
    endloop
  endfacet
  facet normal -0.59912 0 0.80066
    outer loop
      vertex 0.849701 -10.401 21.0344
      vertex 1.04869 -10.401 21.1833
      vertex 0.849701 -8.2 21.0344
    endloop
  endfacet
  facet normal 0 -1 0
    outer loop
      vertex 0.849701 -10.401 21.0344
      vertex 1.4664 -10.401 19.8004
      vertex 1.74004 -10.401 19.9781
    endloop
  endfacet
  facet normal 0 -1 0
    outer loop
      vertex 0.849701 -10.401 21.0344
      vertex 1.74004 -10.401 19.9781
      vertex 1.04869 -10.401 21.1833
    endloop
  endfacet
  facet normal -0.59912 0 0.80066
    outer loop
      vertex 0.849701 -8.2 21.0344
      vertex 1.04869 -10.401 21.1833
      vertex 1.04869 -8.2 21.1833
    endloop
  endfacet
  facet normal 0 1 0
    outer loop
      vertex 0.849701 -8.2 21.0344
      vertex 1.04869 -8.2 21.1833
      vertex 6.1 -8.2 9
    endloop
  endfacet
  facet normal -0.358294 0 0.933609
    outer loop
      vertex 0.871063 -10.401 19.5354
      vertex 1.17567 -11.3295 19.6523
      vertex 1.17567 -10.401 19.6523
    endloop
  endfacet
  facet normal 0.0522053 -0.996444 -0.0661357
    outer loop
      vertex 0.871063 -11.3377 19.5354
      vertex 1.05574 -10.0447 0.2
      vertex 1.17567 -11.3295 19.6523
    endloop
  endfacet
  facet normal -0.358294 0 0.933609
    outer loop
      vertex 0.871063 -11.3377 19.5354
      vertex 1.17567 -11.3295 19.6523
      vertex 0.871063 -10.401 19.5354
    endloop
  endfacet
  facet normal -0.707167 0 0.707046
    outer loop
      vertex 1.04869 -10.401 21.1833
      vertex 1.22446 -10.401 21.3591
      vertex 1.22446 -8.2 21.3591
    endloop
  endfacet
  facet normal -0.707167 0 0.707046
    outer loop
      vertex 1.04869 -10.401 21.1833
      vertex 1.22446 -8.2 21.3591
      vertex 1.04869 -8.2 21.1833
    endloop
  endfacet
  facet normal 0 -1 0
    outer loop
      vertex 1.04869 -10.401 21.1833
      vertex 1.74004 -10.401 19.9781
      vertex 1.99361 -10.401 20.1835
    endloop
  endfacet
  facet normal 0 -1 0
    outer loop
      vertex 1.04869 -10.401 21.1833
      vertex 1.99361 -10.401 20.1835
      vertex 2.22432 -10.401 20.4142
    endloop
  endfacet
  facet normal 0 -1 0
    outer loop
      vertex 1.04869 -10.401 21.1833
      vertex 2.22432 -10.401 20.4142
      vertex 1.22446 -10.401 21.3591
    endloop
  endfacet
  facet normal 0 1 0
    outer loop
      vertex 1.04869 -8.2 21.1833
      vertex 1.22446 -8.2 21.3591
      vertex 6.1 -8.2 9
    endloop
  endfacet
  facet normal 0.0535931 -0.99637 -0.0661394
    outer loop
      vertex 1.05574 -10.0447 0.2
      vertex 1.19075 -11.3292 19.66
      vertex 1.17567 -11.3295 19.6523
    endloop
  endfacet
  facet normal 0 0 -1
    outer loop
      vertex 1.05574 -10.0447 0.2
      vertex 10.1 0 0.2
      vertex 2.09991 -9.87929 0.2
    endloop
  endfacet
  facet normal 0.156119 -0.985522 -0.0661346
    outer loop
      vertex 1.05574 -10.0447 0.2
      vertex 2.09991 -9.87929 0.2
      vertex 1.19075 -11.3292 19.66
    endloop
  endfacet
  facet normal -0.453862 1.83272e-05 0.891072
    outer loop
      vertex 1.17567 -10.401 19.6523
      vertex 1.19075 -11.3292 19.66
      vertex 1.4664 -11.295 19.8004
    endloop
  endfacet
  facet normal -0.453907 0 0.891049
    outer loop
      vertex 1.17567 -10.401 19.6523
      vertex 1.4664 -11.295 19.8004
      vertex 1.4664 -10.401 19.8004
    endloop
  endfacet
  facet normal -0.454757 0 0.890615
    outer loop
      vertex 1.17567 -11.3295 19.6523
      vertex 1.19075 -11.3292 19.66
      vertex 1.17567 -10.401 19.6523
    endloop
  endfacet
  facet normal 0.155967 -0.985545 -0.0661435
    outer loop
      vertex 1.19075 -11.3292 19.66
      vertex 2.09991 -9.87929 0.2
      vertex 1.4664 -11.295 19.8004
    endloop
  endfacet
  facet normal -0.709149 1.56352e-05 -0.705059
    outer loop
      vertex 1.19897 -10.401 25.6172
      vertex 1.67697 -11.6197 25.1364
      vertex 1.23185 -11.7203 25.5841
    endloop
  endfacet
  facet normal -0.709184 -1.18031e-05 -0.705024
    outer loop
      vertex 1.19897 -10.401 25.6172
      vertex 2.22432 -10.401 24.5858
      vertex 1.67697 -11.6197 25.1364
    endloop
  endfacet
  facet normal -0.709461 0 -0.704745
    outer loop
      vertex 1.19897 -11.7242 25.6172
      vertex 1.19897 -10.401 25.6172
      vertex 1.23185 -11.7203 25.5841
    endloop
  endfacet
  facet normal 0.0516173 -0.996475 -0.0661352
    outer loop
      vertex 1.19897 -11.7242 25.6172
      vertex 1.23185 -11.7203 25.5841
      vertex 1.35887 -12.9288 43.892
    endloop
  endfacet
  facet normal -0.800579 0 0.599227
    outer loop
      vertex 1.22446 -10.401 21.3591
      vertex 1.37341 -10.401 21.5581
      vertex 1.37341 -8.2 21.5581
    endloop
  endfacet
  facet normal -0.800579 0 0.599227
    outer loop
      vertex 1.22446 -10.401 21.3591
      vertex 1.37341 -8.2 21.5581
      vertex 1.22446 -8.2 21.3591
    endloop
  endfacet
  facet normal 0 -1 0
    outer loop
      vertex 1.22446 -10.401 21.3591
      vertex 2.22432 -10.401 20.4142
      vertex 2.42966 -10.401 20.6678
    endloop
  endfacet
  facet normal 0 -1 0
    outer loop
      vertex 1.22446 -10.401 21.3591
      vertex 2.42966 -10.401 20.6678
      vertex 1.37341 -10.401 21.5581
    endloop
  endfacet
  facet normal -0.800579 0 -0.599227
    outer loop
      vertex 1.22446 -10.401 23.6409
      vertex 1.22446 -8.2 23.6409
      vertex 1.37341 -10.401 23.4419
    endloop
  endfacet
  facet normal 0 -1 0
    outer loop
      vertex 1.22446 -10.401 23.6409
      vertex 1.37341 -10.401 23.4419
      vertex 2.42966 -10.401 24.3322
    endloop
  endfacet
  facet normal 0 -1 0
    outer loop
      vertex 1.22446 -10.401 23.6409
      vertex 2.42966 -10.401 24.3322
      vertex 2.22432 -10.401 24.5858
    endloop
  endfacet
  facet normal 0 1 0
    outer loop
      vertex 1.22446 -8.2 21.3591
      vertex 1.37341 -8.2 21.5581
      vertex 6.1 -8.2 9
    endloop
  endfacet
  facet normal -0.800579 0 -0.599227
    outer loop
      vertex 1.22446 -8.2 23.6409
      vertex 1.37341 -8.2 23.4419
      vertex 1.37341 -10.401 23.4419
    endloop
  endfacet
  facet normal 0 1 0
    outer loop
      vertex 1.22446 -8.2 23.6409
      vertex 6.1 -8.2 43.892
      vertex 1.37341 -8.2 23.4419
    endloop
  endfacet
  facet normal 0.156211 -0.985507 -0.0661369
    outer loop
      vertex 1.23185 -11.7203 25.5841
      vertex 1.67697 -11.6197 25.1364
      vertex 1.35887 -12.9288 43.892
    endloop
  endfacet
  facet normal 0.156117 -0.985522 -0.0661395
    outer loop
      vertex 1.35887 -12.9288 43.892
      vertex 1.67697 -11.6197 25.1364
      vertex 2.70285 -12.7159 43.892
    endloop
  endfacet
  facet normal 0 0 1
    outer loop
      vertex 1.35887 -12.9288 43.892
      vertex 2.70285 -12.7159 43.892
      vertex 6.1 -8.2 43.892
    endloop
  endfacet
  facet normal -0.87769 0 0.47923
    outer loop
      vertex 1.37341 -10.401 21.5581
      vertex 1.49255 -10.401 21.7763
      vertex 1.49255 -8.2 21.7763
    endloop
  endfacet
  facet normal -0.87769 0 0.47923
    outer loop
      vertex 1.37341 -10.401 21.5581
      vertex 1.49255 -8.2 21.7763
      vertex 1.37341 -8.2 21.5581
    endloop
  endfacet
  facet normal 0 -1 0
    outer loop
      vertex 1.37341 -10.401 21.5581
      vertex 2.42966 -10.401 20.6678
      vertex 2.60736 -10.401 20.9414
    endloop
  endfacet
  facet normal 0 -1 0
    outer loop
      vertex 1.37341 -10.401 21.5581
      vertex 2.60736 -10.401 20.9414
      vertex 1.49255 -10.401 21.7763
    endloop
  endfacet
  facet normal -0.87769 0 -0.47923
    outer loop
      vertex 1.37341 -10.401 23.4419
      vertex 1.37341 -8.2 23.4419
      vertex 1.49255 -10.401 23.2237
    endloop
  endfacet
  facet normal 0 -1 0
    outer loop
      vertex 1.37341 -10.401 23.4419
      vertex 1.49255 -10.401 23.2237
      vertex 2.60736 -10.401 24.0586
    endloop
  endfacet
  facet normal 0 -1 0
    outer loop
      vertex 1.37341 -10.401 23.4419
      vertex 2.60736 -10.401 24.0586
      vertex 2.42966 -10.401 24.3322
    endloop
  endfacet
  facet normal 0 1 0
    outer loop
      vertex 1.37341 -8.2 21.5581
      vertex 1.49255 -8.2 21.7763
      vertex 6.1 -8.2 9
    endloop
  endfacet
  facet normal -0.87769 0 -0.47923
    outer loop
      vertex 1.37341 -8.2 23.4419
      vertex 1.49255 -8.2 23.2237
      vertex 1.49255 -10.401 23.2237
    endloop
  endfacet
  facet normal 0 1 0
    outer loop
      vertex 1.37341 -8.2 23.4419
      vertex 6.1 -8.2 43.892
      vertex 1.49255 -8.2 23.2237
    endloop
  endfacet
  facet normal -0.544631 0 0.838676
    outer loop
      vertex 1.4664 -10.401 19.8004
      vertex 1.74004 -11.2636 19.9781
      vertex 1.74004 -10.401 19.9781
    endloop
  endfacet
  facet normal -0.544631 0 0.838676
    outer loop
      vertex 1.4664 -11.295 19.8004
      vertex 1.74004 -11.2636 19.9781
      vertex 1.4664 -10.401 19.8004
    endloop
  endfacet
  facet normal 0.15604 -0.985534 -0.0661403
    outer loop
      vertex 1.4664 -11.295 19.8004
      vertex 2.09991 -9.87929 0.2
      vertex 1.74004 -11.2636 19.9781
    endloop
  endfacet
  facet normal -0.936946 0 0.349474
    outer loop
      vertex 1.49255 -10.401 21.7763
      vertex 1.57942 -10.401 22.0092
      vertex 1.57942 -8.2 22.0092
    endloop
  endfacet
  facet normal -0.936946 0 0.349474
    outer loop
      vertex 1.49255 -10.401 21.7763
      vertex 1.57942 -8.2 22.0092
      vertex 1.49255 -8.2 21.7763
    endloop
  endfacet
  facet normal 0 -1 0
    outer loop
      vertex 1.49255 -10.401 21.7763
      vertex 2.60736 -10.401 20.9414
      vertex 2.75549 -10.401 21.2321
    endloop
  endfacet
  facet normal 0 -1 0
    outer loop
      vertex 1.49255 -10.401 21.7763
      vertex 2.75549 -10.401 21.2321
      vertex 2.87242 -10.401 21.5367
    endloop
  endfacet
  facet normal 0 -1 0
    outer loop
      vertex 1.49255 -10.401 21.7763
      vertex 2.87242 -10.401 21.5367
      vertex 1.57942 -10.401 22.0092
    endloop
  endfacet
  facet normal -0.936946 0 -0.349474
    outer loop
      vertex 1.49255 -10.401 23.2237
      vertex 1.49255 -8.2 23.2237
      vertex 1.57942 -10.401 22.9908
    endloop
  endfacet
  facet normal 0 -1 0
    outer loop
      vertex 1.49255 -10.401 23.2237
      vertex 1.57942 -10.401 22.9908
      vertex 2.87242 -10.401 23.4633
    endloop
  endfacet
  facet normal 0 -1 0
    outer loop
      vertex 1.49255 -10.401 23.2237
      vertex 2.75549 -10.401 23.7679
      vertex 2.60736 -10.401 24.0586
    endloop
  endfacet
  facet normal 0 -1 0
    outer loop
      vertex 1.49255 -10.401 23.2237
      vertex 2.87242 -10.401 23.4633
      vertex 2.75549 -10.401 23.7679
    endloop
  endfacet
  facet normal 0 1 0
    outer loop
      vertex 1.49255 -8.2 21.7763
      vertex 1.57942 -8.2 22.0092
      vertex 6.1 -8.2 9
    endloop
  endfacet
  facet normal -0.936946 0 -0.349474
    outer loop
      vertex 1.49255 -8.2 23.2237
      vertex 1.57942 -8.2 22.9908
      vertex 1.57942 -10.401 22.9908
    endloop
  endfacet
  facet normal 0 1 0
    outer loop
      vertex 1.49255 -8.2 23.2237
      vertex 6.1 -8.2 43.892
      vertex 1.57942 -8.2 22.9908
    endloop
  endfacet
  facet normal -0.977155 0 0.212528
    outer loop
      vertex 1.57942 -10.401 22.0092
      vertex 1.63225 -10.401 22.2521
      vertex 1.63225 -8.2 22.2521
    endloop
  endfacet
  facet normal -0.977155 0 0.212528
    outer loop
      vertex 1.57942 -10.401 22.0092
      vertex 1.63225 -8.2 22.2521
      vertex 1.57942 -8.2 22.0092
    endloop
  endfacet
  facet normal 0 -1 0
    outer loop
      vertex 1.57942 -10.401 22.0092
      vertex 2.87242 -10.401 21.5367
      vertex 2.95686 -10.401 21.8519
    endloop
  endfacet
  facet normal 0 -1 0
    outer loop
      vertex 1.57942 -10.401 22.0092
      vertex 2.95686 -10.401 21.8519
      vertex 1.63225 -10.401 22.2521
    endloop
  endfacet
  facet normal -0.977155 0 -0.212528
    outer loop
      vertex 1.57942 -10.401 22.9908
      vertex 1.57942 -8.2 22.9908
      vertex 1.63225 -10.401 22.7479
    endloop
  endfacet
  facet normal 0 -1 0
    outer loop
      vertex 1.57942 -10.401 22.9908
      vertex 1.63225 -10.401 22.7479
      vertex 2.95686 -10.401 23.1481
    endloop
  endfacet
  facet normal 0 -1 0
    outer loop
      vertex 1.57942 -10.401 22.9908
      vertex 2.95686 -10.401 23.1481
      vertex 2.87242 -10.401 23.4633
    endloop
  endfacet
  facet normal 0 1 0
    outer loop
      vertex 1.57942 -8.2 22.0092
      vertex 1.63225 -8.2 22.2521
      vertex 6.1 -8.2 9
    endloop
  endfacet
  facet normal -0.977155 0 -0.212528
    outer loop
      vertex 1.57942 -8.2 22.9908
      vertex 1.63225 -8.2 22.7479
      vertex 1.63225 -10.401 22.7479
    endloop
  endfacet
  facet normal 0 1 0
    outer loop
      vertex 1.57942 -8.2 22.9908
      vertex 6.1 -8.2 43.892
      vertex 1.63225 -8.2 22.7479
    endloop
  endfacet
  facet normal -0.997449 0 0.0713786
    outer loop
      vertex 1.63225 -10.401 22.2521
      vertex 1.64999 -10.401 22.5
      vertex 1.64999 -8.2 22.5
    endloop
  endfacet
  facet normal -0.997449 0 0.0713786
    outer loop
      vertex 1.63225 -10.401 22.2521
      vertex 1.64999 -8.2 22.5
      vertex 1.63225 -8.2 22.2521
    endloop
  endfacet
  facet normal 0 -1 0
    outer loop
      vertex 1.63225 -10.401 22.2521
      vertex 2.95686 -10.401 21.8519
      vertex 3.0079 -10.401 22.1742
    endloop
  endfacet
  facet normal 0 -1 0
    outer loop
      vertex 1.63225 -10.401 22.2521
      vertex 3.0079 -10.401 22.1742
      vertex 1.64999 -10.401 22.5
    endloop
  endfacet
  facet normal -0.997449 0 -0.0713786
    outer loop
      vertex 1.63225 -10.401 22.7479
      vertex 1.63225 -8.2 22.7479
      vertex 1.64999 -10.401 22.5
    endloop
  endfacet
  facet normal 0 -1 0
    outer loop
      vertex 1.63225 -10.401 22.7479
      vertex 1.64999 -10.401 22.5
      vertex 3.0079 -10.401 22.8258
    endloop
  endfacet
  facet normal 0 -1 0
    outer loop
      vertex 1.63225 -10.401 22.7479
      vertex 3.0079 -10.401 22.8258
      vertex 2.95686 -10.401 23.1481
    endloop
  endfacet
  facet normal 0 1 0
    outer loop
      vertex 1.63225 -8.2 22.2521
      vertex 1.64999 -8.2 22.5
      vertex 6.1 -8.2 9
    endloop
  endfacet
  facet normal -0.997449 0 -0.0713786
    outer loop
      vertex 1.63225 -8.2 22.7479
      vertex 1.64999 -8.2 22.5
      vertex 1.64999 -10.401 22.5
    endloop
  endfacet
  facet normal 0 1 0
    outer loop
      vertex 1.63225 -8.2 22.7479
      vertex 6.1 -8.2 43.892
      vertex 6.1 -8.2 9
    endloop
  endfacet
  facet normal 0 1 0
    outer loop
      vertex 1.63225 -8.2 22.7479
      vertex 6.1 -8.2 9
      vertex 1.64999 -8.2 22.5
    endloop
  endfacet
  facet normal 0 -1 0
    outer loop
      vertex 1.64999 -10.401 22.5
      vertex 3.0079 -10.401 22.1742
      vertex 3.02499 -10.401 22.5
    endloop
  endfacet
  facet normal 0 -1 0
    outer loop
      vertex 1.64999 -10.401 22.5
      vertex 3.02499 -10.401 22.5
      vertex 3.0079 -10.401 22.8258
    endloop
  endfacet
  facet normal -0.709197 0 -0.705011
    outer loop
      vertex 1.67697 -11.6197 25.1364
      vertex 2.22432 -10.401 24.5858
      vertex 2.22432 -11.4961 24.5858
    endloop
  endfacet
  facet normal 0.156021 -0.985537 -0.0661352
    outer loop
      vertex 1.67697 -11.6197 25.1364
      vertex 2.22432 -11.4961 24.5858
      vertex 2.70285 -12.7159 43.892
    endloop
  endfacet
  facet normal -0.629266 8.5928e-05 0.77719
    outer loop
      vertex 1.74004 -10.401 19.9781
      vertex 1.76413 -11.2611 19.9977
      vertex 1.99361 -11.2372 20.1835
    endloop
  endfacet
  facet normal -0.629437 0 0.777051
    outer loop
      vertex 1.74004 -10.401 19.9781
      vertex 1.99361 -11.2372 20.1835
      vertex 1.99361 -10.401 20.1835
    endloop
  endfacet
  facet normal -0.631114 0 0.77569
    outer loop
      vertex 1.74004 -11.2636 19.9781
      vertex 1.76413 -11.2611 19.9977
      vertex 1.74004 -10.401 19.9781
    endloop
  endfacet
  facet normal 0.156087 -0.985526 -0.066139
    outer loop
      vertex 1.74004 -11.2636 19.9781
      vertex 2.09991 -9.87929 0.2
      vertex 1.76413 -11.2611 19.9977
    endloop
  endfacet
  facet normal 0.156187 -0.985511 -0.0661362
    outer loop
      vertex 1.76413 -11.2611 19.9977
      vertex 2.09991 -9.87929 0.2
      vertex 1.99361 -11.2372 20.1835
    endloop
  endfacet
  facet normal -0.707091 0 0.707122
    outer loop
      vertex 1.99361 -10.401 20.1835
      vertex 2.22432 -11.2161 20.4142
      vertex 2.22432 -10.401 20.4142
    endloop
  endfacet
  facet normal 0.156263 -0.985499 -0.066135
    outer loop
      vertex 1.99361 -11.2372 20.1835
      vertex 2.09991 -9.87929 0.2
      vertex 2.22432 -11.2161 20.4142
    endloop
  endfacet
  facet normal -0.707091 0 0.707122
    outer loop
      vertex 1.99361 -11.2372 20.1835
      vertex 2.22432 -11.2161 20.4142
      vertex 1.99361 -10.401 20.1835
    endloop
  endfacet
  facet normal 0.996444 -0.0521941 -0.0661377
    outer loop
      vertex 10.0447 -1.05574 0.2
      vertex 10.1 0 0.2
      vertex 13 0 43.892
    endloop
  endfacet
  facet normal 0.996444 -0.0522101 -0.0661373
    outer loop
      vertex 10.0447 -1.05574 0.2
      vertex 13 0 43.892
      vertex 12.9288 -1.35887 43.892
    endloop
  endfacet
  facet normal 0 0 -1
    outer loop
      vertex 2.09991 -9.87929 0.2
      vertex 10.1 0 0.2
      vertex 3.12107 -9.60567 0.2
    endloop
  endfacet
  facet normal 0.155667 -0.985593 -0.0661375
    outer loop
      vertex 2.09991 -9.87929 0.2
      vertex 2.38154 -11.2043 20.6084
      vertex 2.22432 -11.2161 20.4142
    endloop
  endfacet
  facet normal 0.257919 -0.9639 -0.0661402
    outer loop
      vertex 2.09991 -9.87929 0.2
      vertex 2.42966 -11.1955 20.6678
      vertex 2.38154 -11.2043 20.6084
    endloop
  endfacet
  facet normal 0.258567 -0.963726 -0.0661394
    outer loop
      vertex 2.09991 -9.87929 0.2
      vertex 2.60736 -11.1666 20.9414
      vertex 2.42966 -11.1955 20.6678
    endloop
  endfacet
  facet normal 0.257976 -0.963885 -0.0661348
    outer loop
      vertex 2.09991 -9.87929 0.2
      vertex 2.75549 -11.1469 21.2321
      vertex 2.60736 -11.1666 20.9414
    endloop
  endfacet
  facet normal 0.258847 -0.963651 -0.0661478
    outer loop
      vertex 2.09991 -9.87929 0.2
      vertex 2.87242 -11.1364 21.5367
      vertex 2.75549 -11.1469 21.2321
    endloop
  endfacet
  facet normal 0.25829 -0.963801 -0.0661365
    outer loop
      vertex 2.09991 -9.87929 0.2
      vertex 2.95686 -11.1354 21.8519
      vertex 2.87242 -11.1364 21.5367
    endloop
  endfacet
  facet normal 0.256837 -0.964192 -0.0661017
    outer loop
      vertex 2.09991 -9.87929 0.2
      vertex 3.0079 -11.1439 22.1742
      vertex 2.95686 -11.1354 21.8519
    endloop
  endfacet
  facet normal 0.252707 -0.965289 -0.0659942
    outer loop
      vertex 2.09991 -9.87929 0.2
      vertex 3.02499 -11.1617 22.5
      vertex 3.0079 -11.1439 22.1742
    endloop
  endfacet
  facet normal 0.258253 -0.963811 -0.0661369
    outer loop
      vertex 2.09991 -9.87929 0.2
      vertex 3.12107 -9.60567 0.2
      vertex 4.01722 -12.3637 43.892
    endloop
  endfacet
  facet normal 0.259177 -0.963561 -0.0661632
    outer loop
      vertex 2.09991 -9.87929 0.2
      vertex 4.01722 -12.3637 43.892
      vertex 3.02499 -11.1617 22.5
    endloop
  endfacet
  facet normal -0.777178 2.30273e-05 0.629281
    outer loop
      vertex 2.22432 -10.401 20.4142
      vertex 2.38154 -11.2043 20.6084
      vertex 2.42966 -10.401 20.6678
    endloop
  endfacet
  facet normal -0.777178 0 -0.629281
    outer loop
      vertex 2.22432 -10.401 24.5858
      vertex 2.42966 -10.401 24.3322
      vertex 2.42966 -11.4466 24.3322
    endloop
  endfacet
  facet normal -0.777224 0 0.629224
    outer loop
      vertex 2.22432 -11.2161 20.4142
      vertex 2.38154 -11.2043 20.6084
      vertex 2.22432 -10.401 20.4142
    endloop
  endfacet
  facet normal -0.777178 0 -0.629281
    outer loop
      vertex 2.22432 -11.4961 24.5858
      vertex 2.22432 -10.401 24.5858
      vertex 2.42966 -11.4466 24.3322
    endloop
  endfacet
  facet normal 0.155905 -0.985556 -0.0661335
    outer loop
      vertex 2.22432 -11.4961 24.5858
      vertex 2.42966 -11.4466 24.3322
      vertex 2.70285 -12.7159 43.892
    endloop
  endfacet
  facet normal -0.777025 0 0.629469
    outer loop
      vertex 2.38154 -11.2043 20.6084
      vertex 2.42966 -11.1955 20.6678
      vertex 2.42966 -10.401 20.6678
    endloop
  endfacet
  facet normal -0.83864 0 0.544687
    outer loop
      vertex 2.42966 -10.401 20.6678
      vertex 2.60736 -11.1666 20.9414
      vertex 2.60736 -10.401 20.9414
    endloop
  endfacet
  facet normal -0.83864 0 -0.544687
    outer loop
      vertex 2.42966 -10.401 24.3322
      vertex 2.60736 -10.401 24.0586
      vertex 2.60736 -11.3805 24.0586
    endloop
  endfacet
  facet normal -0.838663 -1.42945e-05 -0.544651
    outer loop
      vertex 2.42966 -10.401 24.3322
      vertex 2.60736 -11.3805 24.0586
      vertex 2.43286 -11.4457 24.3273
    endloop
  endfacet
  facet normal -0.83864 0 0.544687
    outer loop
      vertex 2.42966 -11.1955 20.6678
      vertex 2.60736 -11.1666 20.9414
      vertex 2.42966 -10.401 20.6678
    endloop
  endfacet
  facet normal -0.837271 0 -0.546789
    outer loop
      vertex 2.42966 -11.4466 24.3322
      vertex 2.42966 -10.401 24.3322
      vertex 2.43286 -11.4457 24.3273
    endloop
  endfacet
  facet normal 0.174931 -0.982353 -0.0661914
    outer loop
      vertex 2.42966 -11.4466 24.3322
      vertex 2.43286 -11.4457 24.3273
      vertex 2.70285 -12.7159 43.892
    endloop
  endfacet
  facet normal 0.258274 -0.963805 -0.0661381
    outer loop
      vertex 2.43286 -11.4457 24.3273
      vertex 2.60736 -11.3805 24.0586
      vertex 4.01722 -12.3637 43.892
    endloop
  endfacet
  facet normal 0.258263 -0.963808 -0.0661374
    outer loop
      vertex 2.43286 -11.4457 24.3273
      vertex 4.01722 -12.3637 43.892
      vertex 2.70285 -12.7159 43.892
    endloop
  endfacet
  facet normal -0.890993 0 0.454017
    outer loop
      vertex 2.60736 -10.401 20.9414
      vertex 2.75549 -11.1469 21.2321
      vertex 2.75549 -10.401 21.2321
    endloop
  endfacet
  facet normal -0.890993 0 -0.454017
    outer loop
      vertex 2.60736 -10.401 24.0586
      vertex 2.75549 -10.401 23.7679
      vertex 2.75549 -11.3209 23.7679
    endloop
  endfacet
  facet normal -0.890993 0 0.454017
    outer loop
      vertex 2.60736 -11.1666 20.9414
      vertex 2.75549 -11.1469 21.2321
      vertex 2.60736 -10.401 20.9414
    endloop
  endfacet
  facet normal -0.890993 0 -0.454017
    outer loop
      vertex 2.60736 -11.3805 24.0586
      vertex 2.60736 -10.401 24.0586
      vertex 2.75549 -11.3209 23.7679
    endloop
  endfacet
  facet normal 0.258044 -0.963868 -0.0661248
    outer loop
      vertex 2.60736 -11.3805 24.0586
      vertex 2.75549 -11.3209 23.7679
      vertex 4.01722 -12.3637 43.892
    endloop
  endfacet
  facet normal 0 0 1
    outer loop
      vertex 2.70285 -12.7159 43.892
      vertex 4.01722 -12.3637 43.892
      vertex 6.1 -8.2 43.892
    endloop
  endfacet
  facet normal -0.933575 0 0.358381
    outer loop
      vertex 2.75549 -10.401 21.2321
      vertex 2.87242 -11.1364 21.5367
      vertex 2.87242 -10.401 21.5367
    endloop
  endfacet
  facet normal -0.933575 0 -0.358381
    outer loop
      vertex 2.75549 -10.401 23.7679
      vertex 2.87242 -10.401 23.4633
      vertex 2.87242 -11.2686 23.4633
    endloop
  endfacet
  facet normal -0.933575 0 0.358381
    outer loop
      vertex 2.75549 -11.1469 21.2321
      vertex 2.87242 -11.1364 21.5367
      vertex 2.75549 -10.401 21.2321
    endloop
  endfacet
  facet normal -0.933575 0 -0.358381
    outer loop
      vertex 2.75549 -11.3209 23.7679
      vertex 2.75549 -10.401 23.7679
      vertex 2.87242 -11.2686 23.4633
    endloop
  endfacet
  facet normal 0.258699 -0.96369 -0.0661567
    outer loop
      vertex 2.75549 -11.3209 23.7679
      vertex 2.87242 -11.2686 23.4633
      vertex 4.01722 -12.3637 43.892
    endloop
  endfacet
  facet normal -0.965939 0 0.258769
    outer loop
      vertex 2.87242 -10.401 21.5367
      vertex 2.95686 -11.1354 21.8519
      vertex 2.95686 -10.401 21.8519
    endloop
  endfacet
  facet normal -0.965939 0 -0.258769
    outer loop
      vertex 2.87242 -10.401 23.4633
      vertex 2.95686 -10.401 23.1481
      vertex 2.95686 -11.2244 23.1481
    endloop
  endfacet
  facet normal -0.965939 0 0.258769
    outer loop
      vertex 2.87242 -11.1364 21.5367
      vertex 2.95686 -11.1354 21.8519
      vertex 2.87242 -10.401 21.5367
    endloop
  endfacet
  facet normal -0.965939 0 -0.258769
    outer loop
      vertex 2.87242 -11.2686 23.4633
      vertex 2.87242 -10.401 23.4633
      vertex 2.95686 -11.2244 23.1481
    endloop
  endfacet
  facet normal 0.257767 -0.963942 -0.066118
    outer loop
      vertex 2.87242 -11.2686 23.4633
      vertex 2.95686 -11.2244 23.1481
      vertex 4.01722 -12.3637 43.892
    endloop
  endfacet
  facet normal -0.987692 0 -0.156413
    outer loop
      vertex 2.95686 -10.401 23.1481
      vertex 3.0079 -10.401 22.8258
      vertex 3.0079 -11.1886 22.8258
    endloop
  endfacet
  facet normal -0.987692 0 0.156413
    outer loop
      vertex 2.95686 -11.1354 21.8519
      vertex 3.0079 -10.401 22.1742
      vertex 2.95686 -10.401 21.8519
    endloop
  endfacet
  facet normal -0.987692 0 0.156413
    outer loop
      vertex 2.95686 -11.1354 21.8519
      vertex 3.0079 -11.1439 22.1742
      vertex 3.0079 -10.401 22.1742
    endloop
  endfacet
  facet normal -0.987692 0 -0.156413
    outer loop
      vertex 2.95686 -11.2244 23.1481
      vertex 2.95686 -10.401 23.1481
      vertex 3.0079 -11.1886 22.8258
    endloop
  endfacet
  facet normal 0.258359 -0.963782 -0.0661395
    outer loop
      vertex 2.95686 -11.2244 23.1481
      vertex 3.0079 -11.1886 22.8258
      vertex 4.01722 -12.3637 43.892
    endloop
  endfacet
  facet normal -0.998627 0 -0.0523835
    outer loop
      vertex 3.0079 -10.401 22.8258
      vertex 3.02499 -10.401 22.5
      vertex 3.02499 -11.1617 22.5
    endloop
  endfacet
  facet normal -0.998627 0 0.0523835
    outer loop
      vertex 3.0079 -11.1439 22.1742
      vertex 3.02499 -10.401 22.5
      vertex 3.0079 -10.401 22.1742
    endloop
  endfacet
  facet normal -0.998627 0 0.0523835
    outer loop
      vertex 3.0079 -11.1439 22.1742
      vertex 3.02499 -11.1617 22.5
      vertex 3.02499 -10.401 22.5
    endloop
  endfacet
  facet normal -0.998627 0 -0.0523835
    outer loop
      vertex 3.0079 -11.1886 22.8258
      vertex 3.0079 -10.401 22.8258
      vertex 3.02499 -11.1617 22.5
    endloop
  endfacet
  facet normal 0.257279 -0.964074 -0.066104
    outer loop
      vertex 3.0079 -11.1886 22.8258
      vertex 3.02499 -11.1617 22.5
      vertex 4.01722 -12.3637 43.892
    endloop
  endfacet
  facet normal 0 0 -1
    outer loop
      vertex 3.12107 -9.60567 0.2
      vertex 10.1 0 0.2
      vertex 4.10804 -9.22681 0.2
    endloop
  endfacet
  facet normal 0.357581 -0.931537 -0.0661369
    outer loop
      vertex 3.12107 -9.60567 0.2
      vertex 4.10804 -9.22681 0.2
      vertex 4.01722 -12.3637 43.892
    endloop
  endfacet
  facet normal 0.357554 -0.931548 -0.0661377
    outer loop
      vertex 4.01722 -12.3637 43.892
      vertex 4.10804 -9.22681 0.2
      vertex 5.28758 -11.8761 43.892
    endloop
  endfacet
  facet normal 0 0 1
    outer loop
      vertex 4.01722 -12.3637 43.892
      vertex 5.28758 -11.8761 43.892
      vertex 6.1 -8.2 43.892
    endloop
  endfacet
  facet normal 0 0 -1
    outer loop
      vertex 4.10804 -9.22681 0.2
      vertex 10.1 0 0.2
      vertex 5.05 -8.74686 0.2
    endloop
  endfacet
  facet normal 0.452995 -0.889057 -0.0661369
    outer loop
      vertex 4.10804 -9.22681 0.2
      vertex 5.05 -8.74686 0.2
      vertex 6.5 -11.2583 43.892
    endloop
  endfacet
  facet normal 0.45302 -0.889043 -0.0661377
    outer loop
      vertex 4.10804 -9.22681 0.2
      vertex 6.5 -11.2583 43.892
      vertex 5.28758 -11.8761 43.892
    endloop
  endfacet
  facet normal 0 0 -1
    outer loop
      vertex 5.05 -8.74686 0.2
      vertex 10.1 0 0.2
      vertex 5.93663 -8.17107 0.2
    endloop
  endfacet
  facet normal 0.54345 -0.836832 -0.066137
    outer loop
      vertex 5.05 -8.74686 0.2
      vertex 5.93663 -8.17107 0.2
      vertex 6.5 -11.2583 43.892
    endloop
  endfacet
  facet normal 0 0 1
    outer loop
      vertex 5.28758 -11.8761 43.892
      vertex 6.5 -11.2583 43.892
      vertex 6.1 -8.2 43.892
    endloop
  endfacet
  facet normal 0 0 -1
    outer loop
      vertex 5.93663 -8.17107 0.2
      vertex 10.1 0 0.2
      vertex 6.75822 -7.50576 0.2
    endloop
  endfacet
  facet normal 0.627942 -0.775445 -0.0661373
    outer loop
      vertex 5.93663 -8.17107 0.2
      vertex 6.75822 -7.50576 0.2
      vertex 7.64121 -10.5172 43.892
    endloop
  endfacet
  facet normal 0.543441 -0.836838 -0.0661373
    outer loop
      vertex 5.93663 -8.17107 0.2
      vertex 7.64121 -10.5172 43.892
      vertex 6.5 -11.2583 43.892
    endloop
  endfacet
  facet normal 0 0 1
    outer loop
      vertex 6.1 -8.2 43.892
      vertex 10.5172 -7.64121 43.892
      vertex 11.2583 -6.5 43.892
    endloop
  endfacet
  facet normal 0 0 1
    outer loop
      vertex 6.1 -8.2 43.892
      vertex 11.2583 -6.5 43.892
      vertex 6.1 0 43.892
    endloop
  endfacet
  facet normal 0 0 1
    outer loop
      vertex 6.1 -8.2 43.892
      vertex 6.5 -11.2583 43.892
      vertex 7.64121 -10.5172 43.892
    endloop
  endfacet
  facet normal 0 0 1
    outer loop
      vertex 6.1 -8.2 43.892
      vertex 7.64121 -10.5172 43.892
      vertex 8.6987 -9.66088 43.892
    endloop
  endfacet
  facet normal 0 0 1
    outer loop
      vertex 6.1 -8.2 43.892
      vertex 8.6987 -9.66088 43.892
      vertex 9.66088 -8.6987 43.892
    endloop
  endfacet
  facet normal 0 0 1
    outer loop
      vertex 6.1 -8.2 43.892
      vertex 9.66088 -8.6987 43.892
      vertex 10.5172 -7.64121 43.892
    endloop
  endfacet
  facet normal -1 0 0
    outer loop
      vertex 6.1 -8.2 9
      vertex 6.1 -8.2 43.892
      vertex 6.1 0 43.892
    endloop
  endfacet
  facet normal -1 0 0
    outer loop
      vertex 6.1 -8.2 9
      vertex 6.1 0 43.892
      vertex 6.1 0 9
    endloop
  endfacet
  facet normal 0 0 1
    outer loop
      vertex 6.1 0 43.892
      vertex 11.2583 -6.5 43.892
      vertex 11.8761 -5.28758 43.892
    endloop
  endfacet
  facet normal 0 0 1
    outer loop
      vertex 6.1 0 43.892
      vertex 11.8761 -5.28758 43.892
      vertex 12.3637 -4.01722 43.892
    endloop
  endfacet
  facet normal 0 0 1
    outer loop
      vertex 6.1 0 43.892
      vertex 12.3637 -4.01722 43.892
      vertex 12.7159 -2.70285 43.892
    endloop
  endfacet
  facet normal 0 0 1
    outer loop
      vertex 6.1 0 43.892
      vertex 12.7159 -2.70285 43.892
      vertex 12.9288 -1.35887 43.892
    endloop
  endfacet
  facet normal 0 0 1
    outer loop
      vertex 6.1 0 43.892
      vertex 12.9288 -1.35887 43.892
      vertex 13 0 43.892
    endloop
  endfacet
  facet normal 0 1 0
    outer loop
      vertex 6.1 0 9
      vertex 13 0 43.892
      vertex 10.1 0 0.2
    endloop
  endfacet
  facet normal 0 1 0
    outer loop
      vertex 6.1 0 9
      vertex 6.1 0 43.892
      vertex 13 0 43.892
    endloop
  endfacet
  facet normal 0 0 -1
    outer loop
      vertex 6.75822 -7.50576 0.2
      vertex 10.1 0 0.2
      vertex 7.50576 -6.75822 0.2
    endloop
  endfacet
  facet normal 0.705559 -0.705559 -0.0661376
    outer loop
      vertex 6.75822 -7.50576 0.2
      vertex 7.50576 -6.75822 0.2
      vertex 9.66088 -8.6987 43.892
    endloop
  endfacet
  facet normal 0.627934 -0.775451 -0.0661376
    outer loop
      vertex 6.75822 -7.50576 0.2
      vertex 8.6987 -9.66088 43.892
      vertex 7.64121 -10.5172 43.892
    endloop
  endfacet
  facet normal 0.705559 -0.705559 -0.0661376
    outer loop
      vertex 6.75822 -7.50576 0.2
      vertex 9.66088 -8.6987 43.892
      vertex 8.6987 -9.66088 43.892
    endloop
  endfacet
  facet normal 0 0 -1
    outer loop
      vertex 7.50576 -6.75822 0.2
      vertex 10.1 0 0.2
      vertex 8.17107 -5.93663 0.2
    endloop
  endfacet
  facet normal 0.775451 -0.627934 -0.0661376
    outer loop
      vertex 7.50576 -6.75822 0.2
      vertex 10.5172 -7.64121 43.892
      vertex 9.66088 -8.6987 43.892
    endloop
  endfacet
  facet normal 0.775445 -0.627942 -0.0661373
    outer loop
      vertex 7.50576 -6.75822 0.2
      vertex 8.17107 -5.93663 0.2
      vertex 10.5172 -7.64121 43.892
    endloop
  endfacet
  facet normal 0 0 -1
    outer loop
      vertex 8.17107 -5.93663 0.2
      vertex 10.1 0 0.2
      vertex 8.74686 -5.05 0.2
    endloop
  endfacet
  facet normal 0.836838 -0.543441 -0.0661373
    outer loop
      vertex 8.17107 -5.93663 0.2
      vertex 11.2583 -6.5 43.892
      vertex 10.5172 -7.64121 43.892
    endloop
  endfacet
  facet normal 0.836832 -0.54345 -0.066137
    outer loop
      vertex 8.17107 -5.93663 0.2
      vertex 8.74686 -5.05 0.2
      vertex 11.2583 -6.5 43.892
    endloop
  endfacet
  facet normal 0 0 -1
    outer loop
      vertex 8.74686 -5.05 0.2
      vertex 10.1 0 0.2
      vertex 9.22681 -4.10804 0.2
    endloop
  endfacet
  facet normal 0.889057 -0.452995 -0.0661369
    outer loop
      vertex 8.74686 -5.05 0.2
      vertex 9.22681 -4.10804 0.2
      vertex 11.2583 -6.5 43.892
    endloop
  endfacet
  facet normal 0 0 -1
    outer loop
      vertex 9.22681 -4.10804 0.2
      vertex 10.1 0 0.2
      vertex 9.60567 -3.12107 0.2
    endloop
  endfacet
  facet normal 0.889043 -0.45302 -0.0661377
    outer loop
      vertex 9.22681 -4.10804 0.2
      vertex 11.8761 -5.28758 43.892
      vertex 11.2583 -6.5 43.892
    endloop
  endfacet
  facet normal 0.931548 -0.357554 -0.0661377
    outer loop
      vertex 9.22681 -4.10804 0.2
      vertex 12.3637 -4.01722 43.892
      vertex 11.8761 -5.28758 43.892
    endloop
  endfacet
  facet normal 0.931537 -0.357581 -0.0661369
    outer loop
      vertex 9.22681 -4.10804 0.2
      vertex 9.60567 -3.12107 0.2
      vertex 12.3637 -4.01722 43.892
    endloop
  endfacet
  facet normal 0 0 -1
    outer loop
      vertex 9.60567 -3.12107 0.2
      vertex 10.1 0 0.2
      vertex 9.87929 -2.09991 0.2
    endloop
  endfacet
  facet normal 0.963811 -0.258253 -0.0661369
    outer loop
      vertex 9.60567 -3.12107 0.2
      vertex 9.87929 -2.09991 0.2
      vertex 12.3637 -4.01722 43.892
    endloop
  endfacet
  facet normal 0.985522 -0.156119 -0.0661372
    outer loop
      vertex 9.87929 -2.09991 0.2
      vertex 10.0447 -1.05574 0.2
      vertex 12.9288 -1.35887 43.892
    endloop
  endfacet
  facet normal 0 0 -1
    outer loop
      vertex 9.87929 -2.09991 0.2
      vertex 10.1 0 0.2
      vertex 10.0447 -1.05574 0.2
    endloop
  endfacet
  facet normal 0.963808 -0.258263 -0.0661372
    outer loop
      vertex 9.87929 -2.09991 0.2
      vertex 12.7159 -2.70285 43.892
      vertex 12.3637 -4.01722 43.892
    endloop
  endfacet
  facet normal 0.985522 -0.156117 -0.0661373
    outer loop
      vertex 9.87929 -2.09991 0.2
      vertex 12.9288 -1.35887 43.892
      vertex 12.7159 -2.70285 43.892
    endloop
  endfacet
endsolid OpenSCAD_Model
